<svg width="488" height="349" viewBox="0 0 488 349" fill="none" xmlns="http://www.w3.org/2000/svg">
<path d="M397.434 0.959999C427.474 26.66 457.514 52.38 487.405 78.25C457.915 104.761 427.255 130.101 397.304 156.15C397.374 138.72 397.194 121.299 397.365 103.879C378.365 103.909 359.365 103.77 340.375 103.94C331.245 103.96 322.655 108.52 316.505 115.1C261.955 171.879 207.295 228.56 152.765 285.36C146.705 291.65 138.255 295.76 129.425 295.68C94.736 295.9 60.035 295.51 25.356 295.909C12.465 295.529 1.40602 283.849 1.41602 271.019C0.776021 257.109 13.036 245.119 26.696 244.708C54.246 244.448 81.826 244.858 109.376 244.519C119.426 244.458 128.276 238.599 134.616 231.199C188.336 175.26 242.116 119.369 295.866 63.449C301.906 56.859 310.586 52.799 319.546 52.599C345.485 52.489 371.436 52.699 397.366 52.498C397.313 35.32 397.174 18.141 397.434 0.959999Z" fill="url(#paint0_linear)"/>
<path d="M20.764 52.48C58.264 52.169 95.895 52.51 133.454 52.4C143.134 51.97 152.994 55.6 159.574 62.83C175.183 78.891 190.624 95.141 206.144 111.29C212.503 117.79 215.994 127.25 213.784 136.27C211.374 147.31 200.804 156.089 189.424 155.98C181.695 156.33 174.574 152.39 168.884 147.5C158.244 136.16 148.044 124.38 137.235 113.19C131.045 106.89 122.145 103.78 113.405 103.9C85.415 103.78 57.425 103.98 29.434 103.81C18.294 103.47 6.41401 98.209 2.30401 87.15C-4.02599 73.07 5.65401 55.19 20.764 52.48Z" fill="#8C8C8C"/>
<path d="M249.554 196.17C259.224 188.441 274.384 189.561 282.914 198.49C294.603 210.47 306.044 222.7 317.744 234.67C323.824 241.08 332.584 244.74 341.414 244.65C360.074 244.58 378.733 244.73 397.404 244.56C397.214 227.45 397.334 210.339 397.364 193.23C427.634 218.87 457.674 244.78 487.664 270.75C457.714 296.7 427.603 322.46 397.443 348.16C397.063 330.66 397.483 313.15 397.254 295.65C371.284 295.41 345.314 295.629 319.344 295.54C310.394 295.46 301.774 291.19 295.784 284.63C279.054 267.36 262.054 250.36 245.494 232.941C235.904 222.471 238.034 204.36 249.554 196.17Z" fill="#8C8C8C"/>
<defs>
<linearGradient id="paint0_linear" x1="244.399" y1="0.959999" x2="244" y2="311.5" gradientUnits="userSpaceOnUse">
<stop stop-color="#C12A23"/>
<stop offset="0.932655" stop-color="#102D71" stop-opacity="0.63"/>
<stop offset="0.9999" stop-color="#001AFF" stop-opacity="0.0260417"/>
<stop offset="1" stop-color="#0A3068" stop-opacity="0.66"/>
</linearGradient>
</defs>
</svg>
