<svg width="30" height="30" viewBox="0 0 30 30" fill="none" xmlns="http://www.w3.org/2000/svg">
<path d="M21.25 2.5H8.75C5.29822 2.5 2.5 5.29822 2.5 8.75V21.25C2.5 24.7018 5.29822 27.5 8.75 27.5H21.25C24.7018 27.5 27.5 24.7018 27.5 21.25V8.75C27.5 5.29822 24.7018 2.5 21.25 2.5Z" stroke="#5A5757" stroke-width="2" stroke-linecap="round" stroke-linejoin="round"/>
<path d="M20 14.2124C20.1543 15.2527 19.9766 16.3152 19.4922 17.2487C19.0078 18.1822 18.2414 18.9392 17.302 19.412C16.3626 19.8848 15.2981 20.0494 14.2597 19.8823C13.2214 19.7152 12.2622 19.225 11.5185 18.4813C10.7749 17.7377 10.2847 16.7785 10.1176 15.7402C9.9505 14.7018 10.1151 13.6373 10.5879 12.6979C11.0607 11.7585 11.8177 10.9921 12.7512 10.5077C13.6847 10.0233 14.7472 9.84562 15.7875 9.99989C16.8487 10.1572 17.8311 10.6517 18.5896 11.4103C19.3482 12.1688 19.8426 13.1512 20 14.2124Z" stroke="#5A5757" stroke-width="2" stroke-linecap="round" stroke-linejoin="round"/>
<path d="M21.875 8.125H21.8875" stroke="#5A5757" stroke-width="2" stroke-linecap="round" stroke-linejoin="round"/>
</svg>
