<svg width="258" height="31" viewBox="0 0 258 31" fill="none" xmlns="http://www.w3.org/2000/svg">
<path d="M18.16 30L12.76 22.2H12.44H6.8V30H0.32V2H12.44C14.92 2 17.0667 2.41333 18.88 3.24C20.72 4.06667 22.1333 5.24 23.12 6.76C24.1067 8.28 24.6 10.08 24.6 12.16C24.6 14.24 24.0933 16.04 23.08 17.56C22.0933 19.0533 20.68 20.2 18.84 21L25.12 30H18.16ZM18.04 12.16C18.04 10.5867 17.5333 9.38667 16.52 8.56C15.5067 7.70667 14.0267 7.28 12.08 7.28H6.8V17.04H12.08C14.0267 17.04 15.5067 16.6133 16.52 15.76C17.5333 14.9067 18.04 13.7067 18.04 12.16ZM39.5341 30.32C37.2674 30.32 35.2274 29.8533 33.4141 28.92C31.6274 27.96 30.2274 26.64 29.2141 24.96C28.2007 23.28 27.6941 21.3733 27.6941 19.24C27.6941 17.1067 28.2007 15.2 29.2141 13.52C30.2274 11.84 31.6274 10.5333 33.4141 9.6C35.2274 8.64 37.2674 8.16 39.5341 8.16C41.8007 8.16 43.8274 8.64 45.6141 9.6C47.4007 10.5333 48.8007 11.84 49.8141 13.52C50.8274 15.2 51.3341 17.1067 51.3341 19.24C51.3341 21.3733 50.8274 23.28 49.8141 24.96C48.8007 26.64 47.4007 27.96 45.6141 28.92C43.8274 29.8533 41.8007 30.32 39.5341 30.32ZM39.5341 25.2C41.1341 25.2 42.4407 24.6667 43.4541 23.6C44.4941 22.5067 45.0141 21.0533 45.0141 19.24C45.0141 17.4267 44.4941 15.9867 43.4541 14.92C42.4407 13.8267 41.1341 13.28 39.5341 13.28C37.9341 13.28 36.6141 13.8267 35.5741 14.92C34.5341 15.9867 34.0141 17.4267 34.0141 19.24C34.0141 21.0533 34.5341 22.5067 35.5741 23.6C36.6141 24.6667 37.9341 25.2 39.5341 25.2ZM65.905 30.32C63.6117 30.32 61.545 29.8533 59.705 28.92C57.8917 27.96 56.465 26.64 55.425 24.96C54.4117 23.28 53.905 21.3733 53.905 19.24C53.905 17.1067 54.4117 15.2 55.425 13.52C56.465 11.84 57.8917 10.5333 59.705 9.6C61.545 8.64 63.6117 8.16 65.905 8.16C68.1717 8.16 70.145 8.64 71.825 9.6C73.5317 10.5333 74.7717 11.88 75.545 13.64L70.705 16.24C69.585 14.2667 67.9717 13.28 65.865 13.28C64.2383 13.28 62.8917 13.8133 61.825 14.88C60.7583 15.9467 60.225 17.4 60.225 19.24C60.225 21.08 60.7583 22.5333 61.825 23.6C62.8917 24.6667 64.2383 25.2 65.865 25.2C67.9983 25.2 69.6117 24.2133 70.705 22.24L75.545 24.88C74.7717 26.5867 73.5317 27.92 71.825 28.88C70.145 29.84 68.1717 30.32 65.905 30.32ZM88.2216 21.56L85.2216 24.52V30H78.9816V0.319998H85.2216V17.12L94.3416 8.48H101.782L92.8216 17.6L102.582 30H95.0216L88.2216 21.56ZM125.53 19.32C125.53 19.4 125.49 19.96 125.41 21H109.13C109.424 22.3333 110.117 23.3867 111.21 24.16C112.304 24.9333 113.664 25.32 115.29 25.32C116.41 25.32 117.397 25.16 118.25 24.84C119.13 24.4933 119.944 23.96 120.69 23.24L124.01 26.84C121.984 29.16 119.024 30.32 115.13 30.32C112.704 30.32 110.557 29.8533 108.69 28.92C106.824 27.96 105.384 26.64 104.37 24.96C103.357 23.28 102.85 21.3733 102.85 19.24C102.85 17.1333 103.344 15.24 104.33 13.56C105.344 11.8533 106.717 10.5333 108.45 9.6C110.21 8.64 112.17 8.16 114.33 8.16C116.437 8.16 118.344 8.61333 120.05 9.52C121.757 10.4267 123.09 11.7333 124.05 13.44C125.037 15.12 125.53 17.08 125.53 19.32ZM114.37 12.88C112.957 12.88 111.77 13.28 110.81 14.08C109.85 14.88 109.264 15.9733 109.05 17.36H119.65C119.437 16 118.85 14.92 117.89 14.12C116.93 13.2933 115.757 12.88 114.37 12.88ZM143.565 28.96C142.951 29.4133 142.191 29.76 141.285 30C140.405 30.2133 139.471 30.32 138.485 30.32C135.925 30.32 133.938 29.6667 132.525 28.36C131.138 27.0533 130.445 25.1333 130.445 22.6V13.76H127.125V8.96H130.445V3.72H136.685V8.96H142.045V13.76H136.685V22.52C136.685 23.4267 136.911 24.1333 137.365 24.64C137.845 25.12 138.511 25.36 139.365 25.36C140.351 25.36 141.191 25.0933 141.885 24.56L143.565 28.96Z" fill="white"/>
<path d="M184.516 2V30H179.196L165.236 13V30H158.836V2H164.196L178.116 19V2H184.516ZM197.62 7.2V14.6H210.58V19.8H197.62V30H191.14V2H212.3V7.2H197.62ZM222.683 7.28H213.723V2H238.123V7.28H229.163V30H222.683V7.28ZM246.925 30.32C245.138 30.32 243.391 30.1067 241.685 29.68C239.978 29.2267 238.618 28.6667 237.605 28L239.685 23.52C240.645 24.1333 241.805 24.64 243.165 25.04C244.525 25.4133 245.858 25.6 247.165 25.6C249.805 25.6 251.125 24.9467 251.125 23.64C251.125 23.0267 250.765 22.5867 250.045 22.32C249.325 22.0533 248.218 21.8267 246.725 21.64C244.965 21.3733 243.511 21.0667 242.365 20.72C241.218 20.3733 240.218 19.76 239.365 18.88C238.538 18 238.125 16.7467 238.125 15.12C238.125 13.76 238.511 12.56 239.285 11.52C240.085 10.4533 241.231 9.62667 242.725 9.04C244.245 8.45333 246.031 8.16 248.085 8.16C249.605 8.16 251.111 8.33333 252.605 8.68C254.125 9 255.378 9.45333 256.365 10.04L254.285 14.48C252.391 13.4133 250.325 12.88 248.085 12.88C246.751 12.88 245.751 13.0667 245.085 13.44C244.418 13.8133 244.085 14.2933 244.085 14.88C244.085 15.5467 244.445 16.0133 245.165 16.28C245.885 16.5467 247.031 16.8 248.605 17.04C250.365 17.3333 251.805 17.6533 252.925 18C254.045 18.32 255.018 18.92 255.845 19.8C256.671 20.68 257.085 21.9067 257.085 23.48C257.085 24.8133 256.685 26 255.885 27.04C255.085 28.08 253.911 28.8933 252.365 29.48C250.845 30.04 249.031 30.32 246.925 30.32Z" fill="#FF5B50"/>
</svg>
