<svg width="30" height="30" viewBox="0 0 30 30" fill="none" xmlns="http://www.w3.org/2000/svg">
<path d="M25.8098 3.34275L16.4407 10.3013L18.1733 6.19586L25.8098 3.34275Z" fill="#E2761B" stroke="#E2761B" stroke-linecap="round" stroke-linejoin="round"/>
<path d="M4.18079 3.34275L13.4746 10.3672L11.8267 6.19586L4.18079 3.34275Z" fill="#E4761B" stroke="#E4761B" stroke-linecap="round" stroke-linejoin="round"/>
<path d="M22.4388 19.4727L19.9435 23.2957L25.2825 24.7646L26.8173 19.5574L22.4388 19.4727Z" fill="#E4761B" stroke="#E4761B" stroke-linecap="round" stroke-linejoin="round"/>
<path d="M3.19209 19.5574L4.71752 24.7646L10.0565 23.2957L7.56121 19.4727L3.19209 19.5574Z" fill="#E4761B" stroke="#E4761B" stroke-linecap="round" stroke-linejoin="round"/>
<path d="M9.75518 13.0132L8.26743 15.2637L13.5687 15.4991L13.3804 9.80226L9.75518 13.0132Z" fill="#E4761B" stroke="#E4761B" stroke-linecap="round" stroke-linejoin="round"/>
<path d="M20.2354 13.0132L16.5631 9.73635L16.4407 15.4991L21.7326 15.2637L20.2354 13.0132Z" fill="#E4761B" stroke="#E4761B" stroke-linecap="round" stroke-linejoin="round"/>
<path d="M10.0565 23.2957L13.2392 21.742L10.4896 19.5951L10.0565 23.2957Z" fill="#E4761B" stroke="#E4761B" stroke-linecap="round" stroke-linejoin="round"/>
<path d="M16.7514 21.742L19.9435 23.2957L19.5009 19.5951L16.7514 21.742Z" fill="#E4761B" stroke="#E4761B" stroke-linecap="round" stroke-linejoin="round"/>
<path d="M19.9435 23.2957L16.7514 21.742L17.0056 23.823L16.9774 24.6987L19.9435 23.2957Z" fill="#D7C1B3" stroke="#D7C1B3" stroke-linecap="round" stroke-linejoin="round"/>
<path d="M10.0565 23.2957L13.0226 24.6987L13.0038 23.823L13.2392 21.742L10.0565 23.2957Z" fill="#D7C1B3" stroke="#D7C1B3" stroke-linecap="round" stroke-linejoin="round"/>
<path d="M13.0697 18.2203L10.4143 17.4388L12.2881 16.5819L13.0697 18.2203Z" fill="#233447" stroke="#233447" stroke-linecap="round" stroke-linejoin="round"/>
<path d="M16.9209 18.2203L17.7025 16.5819L19.5857 17.4388L16.9209 18.2203Z" fill="#233447" stroke="#233447" stroke-linecap="round" stroke-linejoin="round"/>
<path d="M10.0565 23.2957L10.5085 19.4727L7.5612 19.5574L10.0565 23.2957Z" fill="#CD6116" stroke="#CD6116" stroke-linecap="round" stroke-linejoin="round"/>
<path d="M19.4915 19.4727L19.9435 23.2957L22.4388 19.5574L19.4915 19.4727Z" fill="#CD6116" stroke="#CD6116" stroke-linecap="round" stroke-linejoin="round"/>
<path d="M21.7326 15.2637L16.4407 15.4991L16.9303 18.2203L17.7119 16.5819L19.5951 17.4388L21.7326 15.2637Z" fill="#CD6116" stroke="#CD6116" stroke-linecap="round" stroke-linejoin="round"/>
<path d="M10.4143 17.4388L12.2976 16.5819L13.0697 18.2203L13.5687 15.4991L8.26742 15.2637L10.4143 17.4388Z" fill="#CD6116" stroke="#CD6116" stroke-linecap="round" stroke-linejoin="round"/>
<path d="M8.26742 15.2637L10.4896 19.5951L10.4143 17.4388L8.26742 15.2637Z" fill="#E4751F" stroke="#E4751F" stroke-linecap="round" stroke-linejoin="round"/>
<path d="M19.5951 17.4388L19.5009 19.5951L21.7326 15.2637L19.5951 17.4388Z" fill="#E4751F" stroke="#E4751F" stroke-linecap="round" stroke-linejoin="round"/>
<path d="M13.5687 15.4991L13.0697 18.2203L13.6911 21.4313L13.8324 17.2034L13.5687 15.4991Z" fill="#E4751F" stroke="#E4751F" stroke-linecap="round" stroke-linejoin="round"/>
<path d="M16.4407 15.4991L16.1864 17.194L16.2994 21.4313L16.9303 18.2203L16.4407 15.4991Z" fill="#E4751F" stroke="#E4751F" stroke-linecap="round" stroke-linejoin="round"/>
<path d="M16.9303 18.2203L16.2994 21.4313L16.7514 21.742L19.5009 19.5951L19.5951 17.4388L16.9303 18.2203Z" fill="#F6851B" stroke="#F6851B" stroke-linecap="round" stroke-linejoin="round"/>
<path d="M10.4143 17.4388L10.4896 19.5951L13.2392 21.742L13.6912 21.4313L13.0697 18.2203L10.4143 17.4388Z" fill="#F6851B" stroke="#F6851B" stroke-linecap="round" stroke-linejoin="round"/>
<path d="M16.9774 24.6987L17.0056 23.823L16.7702 23.6158H13.2203L13.0038 23.823L13.0226 24.6987L10.0565 23.2957L11.0923 24.1431L13.1921 25.6026H16.7985L18.9077 24.1431L19.9435 23.2957L16.9774 24.6987Z" fill="#C0AD9E" stroke="#C0AD9E" stroke-linecap="round" stroke-linejoin="round"/>
<path d="M16.7514 21.742L16.2994 21.4313H13.6911L13.2392 21.742L13.0038 23.823L13.2203 23.6158H16.7702L17.0057 23.823L16.7514 21.742Z" fill="#161616" stroke="#161616" stroke-linecap="round" stroke-linejoin="round"/>
<path d="M26.2053 10.7533L27.0057 6.91149L25.8098 3.34275L16.7514 10.0659L20.2354 13.0132L25.1601 14.4539L26.2524 13.1827L25.7815 12.8437L26.5348 12.1563L25.951 11.7043L26.7043 11.1299L26.2053 10.7533Z" fill="#763D16" stroke="#763D16" stroke-linecap="round" stroke-linejoin="round"/>
<path d="M2.99435 6.91149L3.79473 10.7533L3.28626 11.1299L4.03955 11.7043L3.46516 12.1563L4.21846 12.8437L3.74765 13.1827L4.83051 14.4539L9.75519 13.0132L13.2392 10.0659L4.1808 3.34275L2.99435 6.91149Z" fill="#763D16" stroke="#763D16" stroke-linecap="round" stroke-linejoin="round"/>
<path d="M25.1601 14.4539L20.2354 13.0132L21.7326 15.2637L19.5009 19.5951L22.4388 19.5574H26.8173L25.1601 14.4539Z" fill="#F6851B" stroke="#F6851B" stroke-linecap="round" stroke-linejoin="round"/>
<path d="M9.75518 13.0132L4.83051 14.4539L3.19209 19.5574H7.56121L10.4896 19.5951L8.26742 15.2637L9.75518 13.0132Z" fill="#F6851B" stroke="#F6851B" stroke-linecap="round" stroke-linejoin="round"/>
<path d="M16.4407 15.4991L16.7514 10.0659L18.1827 6.19586H11.8267L13.2392 10.0659L13.5687 15.4991L13.6817 17.2128L13.6911 21.4313H16.2994L16.3183 17.2128L16.4407 15.4991Z" fill="#F6851B" stroke="#F6851B" stroke-linecap="round" stroke-linejoin="round"/>
</svg>
