<svg width="30" height="30" viewBox="0 0 30 30" fill="none" xmlns="http://www.w3.org/2000/svg">
<path d="M28.175 8.025C28.0265 7.43176 27.7241 6.88821 27.2983 6.44926C26.8725 6.0103 26.3384 5.69148 25.75 5.525C23.6 5 15 5 15 5C15 5 6.4 5 4.25 5.575C3.66156 5.74148 3.12747 6.0603 2.70168 6.49926C2.27589 6.93821 1.97348 7.48176 1.825 8.075C1.43152 10.2569 1.23904 12.4704 1.25 14.6875C1.23597 16.9213 1.42846 19.1516 1.825 21.35C1.9887 21.9248 2.29788 22.4477 2.72268 22.8681C3.14747 23.2885 3.67352 23.5923 4.25 23.75C6.4 24.325 15 24.325 15 24.325C15 24.325 23.6 24.325 25.75 23.75C26.3384 23.5835 26.8725 23.2647 27.2983 22.8257C27.7241 22.3868 28.0265 21.8432 28.175 21.25C28.5654 19.0845 28.7579 16.8879 28.75 14.6875C28.764 12.4537 28.5715 10.2234 28.175 8.025V8.025Z" stroke="#5A5757" stroke-width="2" stroke-linecap="round" stroke-linejoin="round"/>
<path d="M12.1875 18.7751L19.375 14.6876L12.1875 10.6001V18.7751Z" stroke="#5A5757" stroke-width="2" stroke-linecap="round" stroke-linejoin="round"/>
</svg>
