<svg width="1401" height="338" viewBox="0 0 1401 338" fill="none" xmlns="http://www.w3.org/2000/svg">
<path d="M130.376 107.441C130.376 107.441 122.328 68.5151 129.877 53.7932C137.425 39.0714 157.449 42.8766 159.32 49.988C161.192 57.0994 162.19 74.6908 167.866 75.1275C173.543 75.5641 179.719 78.4336 178.284 82.7379C176.849 87.0422 167.367 89.4127 166.868 91.2841C166.369 93.1555 170.175 111.246 170.175 111.246L130.376 107.441Z" fill="#8157E4"/>
<path d="M146.283 77.3729C148.006 77.3729 149.402 74.6079 149.402 71.1972C149.402 67.7864 148.006 65.0215 146.283 65.0215C144.561 65.0215 143.164 67.7864 143.164 71.1972C143.164 74.6079 144.561 77.3729 146.283 77.3729Z" fill="#121214"/>
<path d="M156.45 79.1825C158.173 79.1825 159.569 76.4175 159.569 73.0068C159.569 69.596 158.173 66.8311 156.45 66.8311C154.727 66.8311 153.331 69.596 153.331 73.0068C153.331 76.4175 154.727 79.1825 156.45 79.1825Z" fill="#121214"/>
<path d="M144.099 60.4051C147.468 59.6565 153.706 58.9703 159.071 62.027C159.632 62.3389 160.256 61.6527 159.819 61.1537C157.075 57.7227 151.398 53.0442 143.6 59.3446C143.101 59.7189 143.538 60.5299 144.099 60.4051Z" fill="#121214"/>
<path d="M158.572 87.6654C158.759 87.1039 158.385 86.4801 157.824 86.4178C155.141 85.9187 147.968 84.2968 142.291 80.9282C142.291 80.9282 143.227 78.5578 140.856 79.9925C138.486 81.4273 143.414 98.7692 152.709 95.6501C155.952 94.5273 157.824 89.7863 158.572 87.6654Z" fill="#121214"/>
<path d="M137.487 48.5534C137.487 48.5534 132.247 37.6367 114.718 37.6367C97.1889 37.6367 80.9699 72.3205 64.8757 68.5152C48.719 64.71 61.0704 78.4962 70.1156 78.4962C70.1156 78.4962 69.6166 81.3657 65.8114 82.8004C62.0062 84.2352 72.9227 91.3466 81.968 86.1066C81.968 86.1066 81.4689 88.4771 78.6617 91.7833C75.7922 95.0894 84.8375 97.959 90.0775 88.9138C95.3174 79.8685 108.605 55.6648 124.761 57.5986C140.856 59.47 137.487 48.5534 137.487 48.5534Z" fill="#8157E4"/>
<path d="M216.586 200.763C216.586 200.763 250.895 238.815 246.529 264.391C242.162 289.967 213.467 285.601 213.467 285.601L189.138 290.591L179.781 291.839C179.781 291.839 186.019 278.115 176.662 259.401L208.476 251.915L184.959 218.167L216.586 200.763Z" fill="white"/>
<path d="M119.022 245.365C123.576 254.285 127.818 264.952 129.315 275.495C129.44 276.43 128.13 276.805 127.755 275.931C125.323 270.504 121.018 262.644 116.153 261.833C116.153 261.833 67.4955 260.586 50.0289 259.962C32.5623 259.338 31.9385 316.728 60.0098 324.214C88.0812 331.7 86.2098 316.105 86.2098 316.105C86.2098 316.105 72.4236 312.549 66.5598 302.63C66.1232 301.882 67.0588 301.008 67.745 301.57C73.1098 305.687 85.7107 313.921 101.119 314.857C121.704 316.105 164.123 306.124 175.352 287.409C183.212 274.31 167.242 249.607 156.95 235.945C159.632 237.442 162.502 239.376 165.433 241.996C166.681 243.119 168.365 243.556 169.987 243.306L219.705 235.01L207.852 207.312C194.94 212.365 181.84 221.411 165.433 230.019C143.912 241.31 125.822 244.554 119.022 245.365Z" fill="white"/>
<path d="M67.8075 301.632C73.1722 305.749 85.7731 313.983 101.181 314.919C102.055 314.981 102.99 314.981 103.926 315.043C84.1512 298.7 85.6484 271.003 86.896 261.146C73.2346 260.772 58.2008 260.336 50.0289 260.024C32.5623 259.4 31.9385 316.79 60.0098 324.276C88.0812 331.762 86.2098 316.166 86.2098 316.166C86.2098 316.166 72.4236 312.611 66.5598 302.692C66.1232 301.881 67.0589 301.07 67.8075 301.632Z" fill="#464650"/>
<path d="M364.116 56.3503C355.321 45.9951 342.782 38.5718 329.183 33.207C327.624 37.0746 324.505 40.3808 320.325 41.1294C319.14 41.3165 317.331 42.1899 316.083 42.3146C315.771 42.5018 315.459 42.6889 315.147 42.8761C315.085 42.9384 315.023 42.9384 314.96 43.0008C314.773 43.188 314.336 43.5622 313.9 43.7494C313.089 44.4356 312.34 45.1841 311.529 45.9327C310.531 46.9308 309.533 47.9289 308.597 48.9894C308.473 49.1142 308.348 49.3013 308.223 49.4884C308.036 49.8627 307.849 50.2994 307.599 50.6737C307.35 51.4846 307.038 52.2332 306.851 53.0441C306.726 53.668 306.601 54.2918 306.477 54.9156C306.414 55.9137 306.227 56.9117 306.165 57.9098C306.04 60.4675 305.977 63.0251 306.04 65.5203C306.102 70.386 306.289 75.2517 305.915 80.1174C305.853 81.3027 305.603 82.4879 305.291 83.5484C344.404 92.7183 341.784 119.043 300.737 124.657C250.833 131.519 195.938 112.805 195.938 112.805C195.938 112.805 120.145 91.2836 82.7164 111.245C45.2879 131.207 26.948 203.631 70.8641 231.017C126.071 265.451 180.717 210.057 221.389 206.251C218.332 201.136 219.954 193.713 223.759 189.533C224.82 188.348 226.317 187.412 227.939 186.726C227.752 186.477 227.502 186.165 227.315 185.915C227.128 185.791 226.567 185.104 226.068 184.605C225.069 183.545 224.071 182.547 223.011 181.611C219.143 178.118 214.34 175.061 211.907 170.258C209.911 166.265 209.474 162.211 211.221 158.031C212.718 154.538 216.024 150.608 220.079 150.109C220.765 150.046 221.451 149.922 222.075 149.859C220.828 149.797 219.58 149.672 218.332 149.672L218.145 147.489C218.145 147.489 210.036 137.133 206.043 129.024C205.732 128.463 206.542 127.964 206.979 128.463C211.471 134.326 220.89 145.992 226.879 148.736C379.712 157.407 395.307 93.155 364.116 56.3503ZM206.667 150.046C195.626 151.169 183.649 154.288 170.736 159.902C127.069 178.804 81.7183 180.363 71.675 165.704C71.3007 165.205 71.9245 164.581 72.4236 164.955C73.9207 166.078 76.0417 167.263 78.5369 167.388C78.7864 167.388 79.0361 167.201 79.0984 166.952C79.5975 163.708 83.2155 144.744 96.1907 134.326C96.7522 133.89 97.3759 134.638 96.9393 135.137C94.5688 137.633 91.8864 141.063 90.3893 145.056C89.8279 146.491 89.8903 148.05 90.5765 149.36C93.3212 155.411 101.618 173.19 102.491 173.252C107.981 173.626 121.954 173.065 145.846 166.702C171.173 159.965 188.39 148.113 206.667 150.046Z" fill="white"/>
<path d="M194.254 217.668C191.571 217.855 190.199 221.099 192.008 223.095C197.747 229.52 205.108 242.433 198.496 261.896C189.762 287.597 37.8651 326.772 0.748511 336.004C-0.374344 336.316 -0.187263 338 0.997973 338L220.89 337.376C221.764 337.376 222.575 337.252 223.386 337.002C239.542 331.949 387.572 281.234 414.895 251.915C437.414 227.836 403.604 210.743 392.188 205.878C390.005 204.942 387.634 204.568 385.264 204.755L194.254 217.668Z" fill="url(#paint0_radial)"/>
<path d="M206.043 231.64C206.355 232.326 206.542 232.638 206.792 233.324C213.466 232.825 216.835 232.576 223.634 232.014C223.322 231.391 223.198 231.016 222.886 230.393C216.086 230.954 212.718 231.204 206.043 231.64Z" fill="#04D361"/>
<path d="M216.773 235.946C217.023 236.569 217.085 236.881 217.335 237.567C219.269 237.38 220.267 237.318 222.263 237.131C222.076 236.507 221.951 236.195 221.701 235.571C219.705 235.696 218.707 235.821 216.773 235.946Z" fill="#04D361"/>
<path d="M224.383 235.322C224.632 235.945 224.695 236.257 224.944 236.881C231.307 236.32 234.551 236.008 241.163 235.384C240.914 234.76 240.851 234.511 240.602 233.887C233.989 234.448 230.808 234.76 224.383 235.322Z" fill="#6F33EA"/>
<path d="M243.909 233.575C244.159 234.199 244.283 234.448 244.533 235.072C252.642 234.324 260.69 233.575 268.799 232.764C268.487 232.203 268.362 231.953 268.051 231.392C260.003 232.078 251.956 232.826 243.909 233.575Z" fill="#6F33EA"/>
<path d="M210.224 241.496C210.411 242.12 210.473 242.432 210.598 243.056C212.469 242.868 213.467 242.744 215.339 242.557C215.214 241.933 215.152 241.621 214.964 240.997C213.031 241.184 212.095 241.309 210.224 241.496Z" fill="#04D361"/>
<path d="M217.646 240.749C217.771 241.373 217.896 241.685 218.021 242.308C224.259 241.685 227.44 241.31 233.99 240.687C233.865 240.125 233.803 239.813 233.616 239.189C227.128 239.813 223.947 240.125 217.646 240.749Z" fill="#6F33EA"/>
<path d="M265.992 235.882C266.242 236.444 266.304 236.693 266.491 237.255C272.293 236.631 278.156 236.007 283.958 235.383C283.708 234.884 283.584 234.572 283.272 234.073C276.347 234.884 272.854 235.196 265.992 235.882Z" fill="#04D361"/>
<path d="M236.984 238.815C237.172 239.376 237.234 239.688 237.359 240.249C245.468 239.439 253.64 238.565 261.75 237.754C261.562 237.193 261.438 236.943 261.251 236.382C253.203 237.193 245.094 238.004 236.984 238.815Z" fill="#6F33EA"/>
<path d="M218.831 249.607C218.831 250.168 218.831 250.48 218.831 251.041C220.328 250.854 221.077 250.792 222.574 250.605C222.574 250.043 222.636 249.794 222.636 249.232C221.077 249.357 220.328 249.42 218.831 249.607Z" fill="#04D361"/>
<path d="M225.319 248.858C225.319 249.419 225.319 249.669 225.257 250.23C231.62 249.481 234.926 249.045 241.663 248.296C241.663 247.735 241.663 247.485 241.663 246.924C234.988 247.735 231.682 248.109 225.319 248.858Z" fill="#6F33EA"/>
<path d="M273.727 243.306C273.789 243.805 273.851 244.055 273.851 244.616C275.348 244.429 276.097 244.366 277.594 244.179C277.532 243.68 277.469 243.431 277.407 242.932C275.972 243.056 275.224 243.119 273.727 243.306Z" fill="#AD92FF"/>
<path d="M245.219 246.55C245.219 247.112 245.219 247.361 245.219 247.923C253.703 246.924 262.249 245.926 270.733 244.991C270.67 244.492 270.67 244.242 270.608 243.681C262.124 244.616 253.703 245.552 245.219 246.55Z" fill="#6F33EA"/>
<path d="M280.589 242.495C280.714 242.994 280.714 243.244 280.776 243.743C289.759 242.682 298.679 241.622 307.662 240.561C307.537 240.062 307.412 239.813 307.288 239.376C298.367 240.436 289.509 241.497 280.589 242.495Z" fill="#6F33EA"/>
<path d="M215.587 266.013C215.275 266.512 215.088 266.761 214.776 267.26C216.274 267.011 217.084 266.948 218.644 266.699C219.018 266.2 219.143 265.95 219.455 265.451C217.895 265.701 217.084 265.825 215.587 266.013Z" fill="#04D361"/>
<path d="M222.949 265.078C222.637 265.577 222.45 265.764 222.138 266.263C228.501 265.39 231.931 264.89 238.981 263.955C239.292 263.518 239.48 263.269 239.791 262.77C232.742 263.705 229.312 264.142 222.949 265.078Z" fill="#6F33EA"/>
<path d="M274.1 258.464C273.851 258.901 273.726 259.15 273.414 259.587C275.036 259.4 275.847 259.275 277.531 259.088C277.781 258.651 277.905 258.402 278.155 257.965C276.533 258.152 275.722 258.277 274.1 258.464Z" fill="#04D361"/>
<path d="M243.472 262.27C243.16 262.769 243.035 262.956 242.661 263.455C251.769 262.27 260.876 261.147 269.984 260.024C270.296 259.588 270.421 259.338 270.67 258.901C261.625 260.024 252.58 261.147 243.472 262.27Z" fill="#6F33EA"/>
<path d="M281.524 257.529C281.275 257.966 281.15 258.215 280.9 258.652C290.632 257.467 300.363 256.282 310.094 255.034C310.282 254.597 310.407 254.348 310.531 253.911C300.925 255.159 291.256 256.344 281.524 257.529Z" fill="#6F33EA"/>
<path d="M209.723 273.248C209.287 273.685 209.037 273.934 208.538 274.371C210.035 274.121 210.784 274.059 212.281 273.809C212.78 273.373 213.029 273.123 213.466 272.687C211.969 272.874 211.22 272.998 209.723 273.248Z" fill="#04D361"/>
<path d="M217.147 271.939C216.71 272.376 216.461 272.625 215.962 273.062C222.262 272.126 225.693 271.689 232.867 270.754C233.366 270.317 233.553 270.068 234.052 269.631C226.941 270.567 223.51 271.066 217.147 271.939Z" fill="#6F33EA"/>
<path d="M270.107 265.264C269.671 265.7 269.484 265.95 269.047 266.387C270.794 266.199 271.667 266.075 273.414 265.888C273.85 265.451 274.037 265.201 274.474 264.765C272.727 264.952 271.854 265.077 270.107 265.264Z" fill="#04D361"/>
<path d="M237.796 269.131C237.359 269.568 237.11 269.817 236.673 270.254C245.968 269.069 255.325 267.883 264.619 266.761C265.056 266.324 265.243 266.074 265.68 265.638C256.385 266.823 247.09 267.946 237.796 269.131Z" fill="#6F33EA"/>
<path d="M276.846 264.328C276.472 264.765 276.284 265.014 275.848 265.451C285.891 264.266 295.934 263.018 305.978 261.77C306.352 261.334 306.477 261.084 306.851 260.647C296.87 261.895 286.827 263.08 276.846 264.328Z" fill="#6F33EA"/>
<path d="M198.246 277.615C197.747 278.052 197.497 278.239 196.998 278.676C198.246 278.488 198.869 278.364 200.117 278.114C200.616 277.678 200.866 277.49 201.365 277.054C200.117 277.303 199.493 277.428 198.246 277.615Z" fill="#04D361"/>
<path d="M203.798 276.742C203.299 277.178 203.05 277.366 202.488 277.802C208.04 276.929 211.159 276.43 217.772 275.557C218.333 275.12 218.583 274.933 219.082 274.496C212.469 275.369 209.35 275.806 203.798 276.742Z" fill="#6F33EA"/>
<path d="M253.016 270.379C252.517 270.816 252.267 271.065 251.706 271.502C253.39 271.315 254.264 271.19 256.01 271.003C256.572 270.566 256.821 270.317 257.32 269.88C255.574 270.067 254.7 270.129 253.016 270.379Z" fill="#04D361"/>
<path d="M222.574 273.997C222.075 274.434 221.763 274.621 221.264 275.058C230.184 273.873 239.042 272.75 247.963 271.627C248.462 271.19 248.774 271.003 249.273 270.566C240.352 271.627 231.432 272.75 222.574 273.997Z" fill="#6F33EA"/>
<path d="M213.467 262.769C213.217 263.268 213.092 263.518 212.843 264.017C218.707 263.144 221.826 262.707 228.376 261.834C228.625 261.335 228.75 261.085 228.999 260.586C222.512 261.522 219.33 261.958 213.467 262.769Z" fill="#04D361"/>
<path d="M261.375 256.531C261.188 257.03 261.063 257.217 260.813 257.717C262.373 257.529 263.122 257.405 264.743 257.217C264.993 256.718 265.055 256.531 265.243 256.032C263.683 256.219 262.872 256.282 261.375 256.531Z" fill="#04D361"/>
<path d="M232.493 260.148C232.243 260.647 232.119 260.897 231.869 261.396C240.415 260.273 249.024 259.15 257.57 258.09C257.82 257.591 257.882 257.403 258.132 256.904C249.585 257.965 241.039 259.025 232.493 260.148Z" fill="#6F33EA"/>
<path d="M268.487 255.595C268.3 256.094 268.175 256.281 267.988 256.78C277.408 255.595 286.827 254.472 296.309 253.287C296.434 252.85 296.496 252.601 296.621 252.102C287.264 253.287 277.907 254.472 268.487 255.595Z" fill="#6F33EA"/>
<path d="M300.052 251.728C299.927 252.164 299.865 252.414 299.74 252.913C320.575 250.293 341.348 247.673 362.121 244.679C362.121 244.242 362.183 243.992 362.183 243.556C341.473 246.488 320.763 249.17 300.052 251.728Z" fill="#6F33EA"/>
<path d="M232.245 252.102C232.182 252.663 232.12 252.913 231.995 253.412C238.545 252.601 241.976 252.164 248.963 251.353C249.025 250.854 249.087 250.604 249.15 250.043C242.226 250.854 238.795 251.291 232.245 252.102Z" fill="#04D361"/>
<path d="M282.273 246.113C282.273 246.612 282.273 246.862 282.273 247.361C283.833 247.174 284.581 247.112 286.141 246.924C286.141 246.425 286.141 246.176 286.079 245.677C284.581 245.864 283.833 245.926 282.273 246.113Z" fill="#04D361"/>
<path d="M252.83 249.606C252.767 250.105 252.767 250.355 252.643 250.916C261.438 249.856 270.234 248.795 279.03 247.735C279.03 247.236 279.03 246.986 279.03 246.487C270.296 247.548 261.563 248.546 252.83 249.606Z" fill="#6F33EA"/>
<path d="M289.385 245.24C289.447 245.739 289.447 245.988 289.447 246.487C298.617 245.365 307.85 244.242 317.019 243.119C316.957 242.62 316.895 242.433 316.77 241.934C307.662 243.056 298.492 244.179 289.385 245.24Z" fill="#6F33EA"/>
<path d="M205.545 270.816C205.171 271.253 204.984 271.502 204.609 271.939C210.037 271.066 212.968 270.629 219.331 269.693C219.768 269.256 219.955 269.007 220.329 268.57C213.966 269.444 210.972 269.943 205.545 270.816Z" fill="#6F33EA"/>
<path d="M252.829 264.329C252.455 264.828 252.268 265.015 251.831 265.514C253.453 265.327 254.264 265.202 255.948 265.015C256.323 264.579 256.51 264.329 256.884 263.83C255.262 264.017 254.451 264.142 252.829 264.329Z" fill="#04D361"/>
<path d="M292.067 259.4C291.755 259.837 291.63 260.087 291.318 260.523C293.003 260.336 293.876 260.211 295.56 260.024C295.872 259.588 295.997 259.338 296.309 258.901C294.625 259.089 293.751 259.213 292.067 259.4Z" fill="#04D361"/>
<path d="M223.636 268.071C223.262 268.507 223.074 268.757 222.638 269.194C231.121 268.008 239.668 266.885 248.214 265.825C248.588 265.388 248.775 265.139 249.15 264.702C240.666 265.825 232.182 266.885 223.636 268.071Z" fill="#6F33EA"/>
<path d="M259.691 263.393C259.316 263.829 259.129 264.079 258.755 264.515C268.424 263.33 278.093 262.145 287.762 260.96C288.074 260.523 288.261 260.274 288.511 259.837C278.966 261.022 269.297 262.207 259.691 263.393Z" fill="#6F33EA"/>
<path d="M299.864 258.464C299.614 258.9 299.427 259.15 299.178 259.586C309.034 258.339 318.952 257.154 328.809 255.844C329.058 255.407 329.183 255.157 329.37 254.721C319.514 256.031 309.658 257.216 299.864 258.464Z" fill="#6F33EA"/>
<path d="M276.222 230.58C276.596 231.142 276.721 231.391 277.033 231.953C285.579 231.142 294.125 230.268 302.671 229.333C302.234 228.834 302.047 228.584 301.611 228.085C293.189 228.958 284.705 229.769 276.222 230.58Z" fill="#6F33EA"/>
<path d="M305.229 227.71C305.665 228.209 305.915 228.459 306.289 228.958C311.342 228.459 313.899 228.147 318.952 227.586C318.516 227.087 318.266 226.837 317.767 226.4C312.777 226.962 310.281 227.211 305.229 227.71Z" fill="#04D361"/>
<path d="M321.448 226.027C321.947 226.526 322.197 226.775 322.696 227.212C323.881 227.087 324.505 227.025 325.752 226.9C325.253 226.401 325.004 226.214 324.505 225.715C323.257 225.84 322.633 225.902 321.448 226.027Z" fill="#04D361"/>
<path d="M270.359 231.142C270.671 231.703 270.858 231.953 271.17 232.514C272.605 232.39 273.291 232.327 274.726 232.14C274.414 231.579 274.227 231.329 273.915 230.768C272.48 230.955 271.794 231.017 270.359 231.142Z" fill="#AD92FF"/>
<path d="M211.596 245.739C211.658 246.363 211.72 246.612 211.783 247.236C217.834 246.55 220.953 246.176 227.316 245.489C227.253 244.928 227.253 244.616 227.128 244.055C220.828 244.741 217.647 245.053 211.596 245.739Z" fill="#04D361"/>
<path d="M230.56 243.68C230.622 244.241 230.684 244.553 230.747 245.114C238.856 244.241 246.903 243.305 255.013 242.432C254.951 241.871 254.888 241.621 254.763 241.06C246.654 241.933 238.607 242.806 230.56 243.68Z" fill="#6F33EA"/>
<path d="M263.06 240.187C263.184 240.748 263.247 240.998 263.371 241.559C272.167 240.561 281.025 239.626 289.821 238.627C289.634 238.128 289.509 237.879 289.322 237.38C280.589 238.253 271.855 239.189 263.06 240.187Z" fill="#6F33EA"/>
<path d="M293.064 236.881C293.314 237.38 293.376 237.629 293.563 238.128C312.652 235.945 331.741 233.699 350.767 231.266C350.392 230.83 350.268 230.58 349.893 230.144C330.992 232.514 312.028 234.76 293.064 236.881Z" fill="#6F33EA"/>
<path d="M257.134 240.811C257.259 241.372 257.321 241.622 257.383 242.183C258.818 241.996 259.567 241.934 261.001 241.809C260.877 241.247 260.814 240.998 260.689 240.437C259.255 240.561 258.506 240.686 257.134 240.811Z" fill="#AD92FF"/>
<path d="M212.469 259.025C212.344 259.524 212.219 259.836 212.095 260.335C217.896 259.524 221.015 259.088 227.44 258.214C227.627 257.715 227.69 257.466 227.877 256.967C221.39 257.84 218.27 258.214 212.469 259.025Z" fill="#04D361"/>
<path d="M231.246 256.53C231.059 257.029 230.997 257.279 230.81 257.778C239.169 256.655 247.59 255.657 256.011 254.596C256.199 254.097 256.261 253.848 256.386 253.349C247.964 254.409 239.605 255.47 231.246 256.53Z" fill="#6F33EA"/>
<path d="M265.181 252.288C265.056 252.788 264.994 253.037 264.869 253.536C274.289 252.413 283.708 251.228 293.128 250.105C293.19 249.606 293.252 249.419 293.252 248.92C283.895 250.043 274.538 251.166 265.181 252.288Z" fill="#6F33EA"/>
<path d="M297.244 248.422C297.181 248.921 297.182 249.108 297.119 249.607C317.268 247.112 337.355 244.554 357.504 241.747C357.441 241.31 357.379 241.061 357.317 240.624C337.355 243.369 317.33 245.926 297.244 248.422Z" fill="#6F33EA"/>
<path d="M258.88 253.101C258.755 253.6 258.693 253.849 258.506 254.348C260.003 254.161 260.814 254.099 262.311 253.849C262.436 253.35 262.498 253.101 262.623 252.602C261.126 252.789 260.377 252.913 258.88 253.101Z" fill="#04D361"/>
<path d="M225.631 230.206C225.943 230.829 226.067 231.204 226.379 231.827C234.364 231.204 242.349 230.517 250.334 229.894C250.022 229.27 249.835 229.02 249.46 228.396C241.538 229.02 233.616 229.644 225.631 230.206Z" fill="#6F33EA"/>
<path d="M257.383 227.711C257.757 228.272 257.944 228.584 258.319 229.208C266.553 228.522 274.787 227.773 283.021 227.025C282.585 226.463 282.335 226.214 281.899 225.652C273.727 226.401 265.555 227.087 257.383 227.711Z" fill="#6F33EA"/>
<path d="M284.769 225.403C285.268 225.964 285.455 226.214 285.954 226.775C301.861 225.278 317.83 223.718 333.737 222.096C333.114 221.66 332.802 221.41 332.178 220.911C316.333 222.533 300.551 223.968 284.769 225.403Z" fill="#6F33EA"/>
<path d="M252.331 228.147C252.705 228.771 252.892 229.02 253.204 229.644C254.327 229.519 254.889 229.519 256.011 229.395C255.637 228.833 255.512 228.521 255.138 227.897C254.015 228.022 253.454 228.022 252.331 228.147Z" fill="#AD92FF"/>
<path d="M193.754 281.046C193.193 281.483 192.943 281.67 192.319 282.044C197.497 281.109 200.491 280.609 207.166 279.674C207.79 279.237 208.102 279.05 208.663 278.613C202.051 279.611 198.994 280.11 193.754 281.046Z" fill="#04D361"/>
<path d="M196.436 282.855C195.812 283.229 195.501 283.479 194.814 283.853C196.499 283.604 197.372 283.417 199.243 283.167C199.93 282.793 200.242 282.543 200.865 282.169C199.056 282.481 198.183 282.606 196.436 282.855Z" fill="#04D361"/>
<path d="M203.486 281.795C202.862 282.231 202.488 282.418 201.864 282.793C207.978 281.919 211.346 281.483 218.52 280.547C219.206 280.11 219.518 279.923 220.204 279.549C212.968 280.485 209.6 280.921 203.486 281.795Z" fill="#6F33EA"/>
<path d="M223.884 279.05C223.198 279.487 222.886 279.674 222.2 280.048C231.682 278.863 241.226 277.74 250.708 276.68C251.332 276.243 251.706 276.056 252.33 275.619C242.848 276.742 233.366 277.927 223.884 279.05Z" fill="#6F33EA"/>
<path d="M184.959 286.972C184.272 287.347 183.961 287.534 183.274 287.908C184.709 287.659 185.458 287.534 187.017 287.284C187.703 286.91 188.078 286.723 188.764 286.286C187.142 286.536 186.393 286.723 184.959 286.972Z" fill="#04D361"/>
<path d="M191.01 285.912C190.324 286.286 189.95 286.473 189.264 286.91C194.566 286.037 197.623 285.6 204.235 284.727C204.984 284.352 205.358 284.103 206.044 283.729C199.432 284.664 196.375 285.101 191.01 285.912Z" fill="#6F33EA"/>
<path d="M242.349 279.362C241.663 279.798 241.289 279.985 240.54 280.36C247.589 279.549 254.7 278.8 261.75 278.052C262.436 277.615 262.81 277.428 263.496 276.991C256.447 277.802 249.398 278.551 242.349 279.362Z" fill="#04D361"/>
<path d="M209.537 283.293C208.788 283.667 208.476 283.916 207.728 284.291C216.773 283.106 225.88 282.045 234.988 281.047C235.736 280.61 236.111 280.423 236.797 280.049C227.627 281.047 218.582 282.107 209.537 283.293Z" fill="#6F33EA"/>
<path d="M179.656 291.651C178.845 292.026 178.409 292.213 177.598 292.587C178.845 292.4 179.469 292.275 180.779 292.088C181.652 291.714 182.027 291.527 182.838 291.152C181.528 291.339 180.904 291.464 179.656 291.651Z" fill="#04D361"/>
<path d="M185.271 290.777C184.46 291.152 184.024 291.339 183.15 291.713C188.889 290.902 192.133 290.465 199.182 289.654C200.056 289.28 200.492 289.093 201.303 288.719C194.254 289.592 191.01 289.966 185.271 290.777Z" fill="#6F33EA"/>
<path d="M237.359 284.728C236.548 285.102 236.112 285.351 235.238 285.726C236.985 285.539 237.921 285.476 239.667 285.289C240.541 284.915 240.915 284.665 241.788 284.291C239.979 284.478 239.106 284.603 237.359 284.728Z" fill="#04D361"/>
<path d="M205.045 288.282C204.171 288.656 203.735 288.843 202.924 289.218C212.468 288.157 222.012 287.097 231.619 286.099C232.492 285.724 232.929 285.475 233.74 285.101C224.133 286.161 214.589 287.159 205.045 288.282Z" fill="#6F33EA"/>
<path d="M245.53 283.916C244.719 284.352 244.283 284.539 243.472 284.914C254.201 283.853 264.931 282.73 275.66 281.67C276.471 281.233 276.845 281.046 277.656 280.609C266.927 281.732 256.197 282.793 245.53 283.916Z" fill="#6F33EA"/>
<path d="M151.773 302.818C150.713 303.192 150.214 303.317 149.091 303.691C150.214 303.566 150.838 303.441 152.085 303.317C153.146 302.942 153.707 302.818 154.767 302.443C153.582 302.568 152.958 302.63 151.773 302.818Z" fill="#04D361"/>
<path d="M157.199 302.131C156.139 302.506 155.577 302.693 154.517 303.005C160.068 302.381 163.312 302.007 170.424 301.32C171.547 300.946 172.108 300.759 173.168 300.385C165.995 301.071 162.751 301.445 157.199 302.131Z" fill="#6F33EA"/>
<path d="M210.099 297.141C208.976 297.515 208.415 297.765 207.354 298.139C209.164 298.014 210.099 297.889 211.971 297.765C213.094 297.39 213.655 297.141 214.715 296.767C212.844 296.954 211.971 297.016 210.099 297.141Z" fill="#04D361"/>
<path d="M176.912 300.072C175.789 300.447 175.227 300.634 174.104 301.008C183.898 300.135 193.755 299.261 203.548 298.513C204.671 298.138 205.233 297.951 206.355 297.515C196.499 298.263 186.705 299.137 176.912 300.072Z" fill="#6F33EA"/>
<path d="M218.583 296.455C217.46 296.829 216.961 297.079 215.838 297.453C226.879 296.58 237.983 295.706 249.024 294.833C250.147 294.396 250.646 294.209 251.707 293.772C240.665 294.708 229.624 295.582 218.583 296.455Z" fill="#6F33EA"/>
<path d="M135.18 307.995C133.995 308.369 133.433 308.494 132.248 308.868C133.309 308.743 133.87 308.681 135.117 308.556C136.303 308.182 136.864 308.057 138.049 307.683C136.802 307.745 136.24 307.807 135.18 307.995Z" fill="#04D361"/>
<path d="M140.232 307.371C139.046 307.745 138.485 307.87 137.237 308.244C142.54 307.683 145.721 307.371 152.708 306.81C153.955 306.435 154.517 306.248 155.764 305.874C148.778 306.498 145.596 306.81 140.232 307.371Z" fill="#6F33EA"/>
<path d="M192.694 303.129C191.447 303.504 190.885 303.753 189.638 304.127C191.447 304.003 192.382 303.94 194.254 303.815C195.501 303.441 196.125 303.192 197.311 302.817C195.502 302.88 194.566 302.942 192.694 303.129Z" fill="#04D361"/>
<path d="M159.507 305.624C158.322 305.998 157.698 306.185 156.45 306.559C166.244 305.748 176.038 305.062 185.831 304.376C187.079 304.002 187.703 303.815 188.888 303.378C179.094 304.064 169.301 304.813 159.507 305.624Z" fill="#6F33EA"/>
<path d="M201.24 302.505C199.993 302.88 199.431 303.129 198.184 303.503C209.35 302.755 220.454 302.006 231.62 301.258C232.867 300.821 233.429 300.634 234.676 300.197C223.51 300.946 212.344 301.694 201.24 302.505Z" fill="#6F33EA"/>
<path d="M120.395 311.363C119.21 311.675 118.648 311.862 117.463 312.174C118.149 312.049 118.461 311.986 119.272 311.862C120.457 311.55 121.081 311.363 122.266 311.051C121.455 311.176 121.081 311.238 120.395 311.363Z" fill="#04D361"/>
<path d="M123.825 310.864C122.64 311.176 122.016 311.363 120.831 311.737C124.574 311.238 127.069 310.989 132.871 310.49C134.118 310.115 134.742 309.928 135.99 309.616C130.126 310.115 127.631 310.365 123.825 310.864Z" fill="#6F33EA"/>
<path d="M169.176 306.996C167.929 307.371 167.243 307.558 165.933 307.932C167.679 307.807 168.553 307.745 170.299 307.62C171.609 307.246 172.233 307.059 173.543 306.622C171.796 306.872 170.923 306.934 169.176 306.996Z" fill="#04D361"/>
<path d="M139.109 309.305C137.862 309.679 137.238 309.866 135.99 310.178C144.786 309.43 153.582 308.806 162.377 308.244C163.687 307.87 164.311 307.683 165.621 307.309C156.763 307.87 147.967 308.494 139.109 309.305Z" fill="#6F33EA"/>
<path d="M156.015 300.571C155.017 300.945 154.518 301.07 153.52 301.444C157.761 300.758 160.444 300.446 166.495 299.698C167.555 299.323 168.054 299.136 169.052 298.824C163.002 299.573 160.319 299.885 156.015 300.571Z" fill="#04D361"/>
<path d="M202.425 295.456C201.364 295.83 200.865 296.018 199.805 296.392C201.489 296.267 202.362 296.142 204.109 296.018C205.169 295.643 205.668 295.456 206.729 295.02C204.982 295.207 204.109 295.269 202.425 295.456Z" fill="#04D361"/>
<path d="M172.358 298.451C171.298 298.825 170.799 299.012 169.738 299.387C178.596 298.389 187.392 297.578 196.25 296.767C197.311 296.392 197.81 296.205 198.87 295.831C190.012 296.642 181.154 297.453 172.358 298.451Z" fill="#6F33EA"/>
<path d="M210.41 294.708C209.35 295.082 208.851 295.269 207.79 295.706C218.582 294.77 229.374 293.834 240.166 292.961C241.226 292.524 241.725 292.337 242.723 291.9C231.931 292.836 221.202 293.772 210.41 294.708Z" fill="#6F33EA"/>
<path d="M246.652 291.588C245.654 292.025 245.155 292.212 244.095 292.649C266.864 290.715 289.633 288.906 312.277 286.411C313.275 285.974 313.774 285.725 314.772 285.226C292.128 287.721 269.359 289.592 246.652 291.588Z" fill="#6F33EA"/>
<path d="M185.52 292.711C184.647 293.085 184.148 293.272 183.274 293.647C189.575 292.836 193.068 292.462 200.616 291.651C201.552 291.276 201.989 291.089 202.924 290.715C195.376 291.526 191.82 291.9 185.52 292.711Z" fill="#04D361"/>
<path d="M240.602 286.785C239.729 287.16 239.292 287.409 238.356 287.783C240.165 287.596 241.101 287.534 242.91 287.347C243.846 286.91 244.283 286.723 245.156 286.349C243.347 286.536 242.411 286.661 240.602 286.785Z" fill="#04D361"/>
<path d="M206.792 290.216C205.857 290.59 205.42 290.777 204.484 291.152C214.528 290.091 224.509 289.093 234.552 288.157C235.488 287.783 235.924 287.533 236.798 287.159C226.817 288.157 216.836 289.155 206.792 290.216Z" fill="#6F33EA"/>
<path d="M249.024 285.974C248.151 286.411 247.714 286.598 246.778 286.972C257.633 285.912 268.487 284.914 279.341 283.853C280.215 283.417 280.651 283.23 281.462 282.793C270.67 283.916 259.816 284.914 249.024 285.974Z" fill="#6F33EA"/>
<path d="M137.737 306.249C136.677 306.561 136.115 306.748 135.055 307.06C138.423 306.499 140.669 306.187 146.096 305.563C147.219 305.189 147.78 305.064 148.966 304.689C143.476 305.376 141.106 305.688 137.737 306.249Z" fill="#6F33EA"/>
<path d="M180.406 301.819C179.22 302.193 178.659 302.38 177.474 302.754C179.158 302.63 179.969 302.567 181.716 302.443C182.901 302.068 183.462 301.881 184.647 301.507C182.901 301.632 182.027 301.694 180.406 301.819Z" fill="#04D361"/>
<path d="M224.321 298.389C223.198 298.826 222.574 299.013 221.451 299.449C223.385 299.325 224.321 299.262 226.254 299.075C227.44 298.638 228.001 298.451 229.124 298.015C227.19 298.202 226.254 298.264 224.321 298.389Z" fill="#04D361"/>
<path d="M151.834 304.439C150.711 304.813 150.15 305 148.965 305.312C157.324 304.439 165.683 303.753 173.979 303.067C175.165 302.692 175.726 302.505 176.911 302.131C168.552 302.817 160.193 303.566 151.834 304.439Z" fill="#6F33EA"/>
<path d="M188.203 301.194C187.018 301.569 186.457 301.756 185.271 302.13C196.001 301.319 206.73 300.508 217.46 299.697C218.645 299.261 219.207 299.074 220.392 298.699C209.662 299.51 198.933 300.321 188.203 301.194Z" fill="#6F33EA"/>
<path d="M233.117 297.764C231.994 298.2 231.37 298.388 230.247 298.824C241.164 298.013 252.143 297.202 263.059 296.391C264.245 295.955 264.806 295.705 265.929 295.269C254.95 296.08 244.033 296.953 233.117 297.764Z" fill="#6F33EA"/>
<path d="M262.497 274.497C261.873 274.934 261.561 275.121 260.938 275.557C271.605 274.372 282.272 273.187 292.939 271.939C293.5 271.503 293.812 271.316 294.374 270.879C283.769 272.064 273.102 273.312 262.497 274.497Z" fill="#6F33EA"/>
<path d="M298.866 270.379C298.305 270.816 297.993 271.003 297.432 271.44C303.67 270.754 306.789 270.379 312.964 269.631C313.526 269.194 313.775 269.007 314.337 268.57C308.223 269.257 305.104 269.631 298.866 270.379Z" fill="#04D361"/>
<path d="M318.641 268.009C318.08 268.446 317.83 268.695 317.269 269.132C318.703 268.945 319.452 268.882 320.887 268.695C321.448 268.258 321.698 268.009 322.259 267.572C320.824 267.759 320.138 267.822 318.641 268.009Z" fill="#04D361"/>
<path d="M255.2 275.307C254.576 275.743 254.264 275.93 253.578 276.367C255.325 276.18 256.198 276.055 257.945 275.868C258.569 275.431 258.88 275.244 259.504 274.808C257.82 275.057 256.947 275.12 255.2 275.307Z" fill="#04D361"/>
<path d="M180.406 289.593C179.657 289.967 179.283 290.154 178.534 290.528C183.026 289.718 185.708 289.281 191.697 288.47C192.508 288.096 192.882 287.908 193.63 287.534C187.704 288.345 184.959 288.719 180.406 289.593Z" fill="#04D361"/>
<path d="M196.874 287.035C196.126 287.409 195.689 287.596 194.94 287.971C203.487 286.848 212.033 285.787 220.641 284.852C221.452 284.477 221.827 284.228 222.637 283.854C214.029 284.852 205.483 285.85 196.874 287.035Z" fill="#6F33EA"/>
<path d="M232.243 282.792C231.495 283.167 231.058 283.416 230.31 283.79C240.852 282.605 251.457 281.545 261.999 280.422C262.748 279.985 263.122 279.798 263.87 279.361C253.328 280.484 242.786 281.607 232.243 282.792Z" fill="#6F33EA"/>
<path d="M268.362 278.863C267.613 279.299 267.239 279.486 266.49 279.923C288.76 277.553 311.093 275.245 333.3 272.5C333.986 272.063 334.361 271.814 334.984 271.377C312.839 274.122 290.632 276.492 268.362 278.863Z" fill="#6F33EA"/>
<path d="M225.319 283.542C224.571 283.916 224.134 284.166 223.323 284.54C224.945 284.353 225.818 284.291 227.44 284.104C228.251 283.729 228.626 283.48 229.374 283.105C227.752 283.293 226.941 283.355 225.319 283.542Z" fill="#04D361"/>
<path d="M161.754 298.077C160.818 298.451 160.381 298.576 159.445 298.95C163.562 298.264 166.12 297.889 172.046 297.141C173.044 296.767 173.481 296.579 174.479 296.205C168.553 297.016 165.933 297.39 161.754 298.077Z" fill="#04D361"/>
<path d="M177.598 295.83C176.662 296.204 176.163 296.391 175.165 296.765C183.774 295.705 192.445 294.832 201.053 294.021C202.051 293.646 202.55 293.459 203.548 293.085C194.877 293.896 186.206 294.832 177.598 295.83Z" fill="#6F33EA"/>
<path d="M213.342 292.088C212.344 292.462 211.845 292.649 210.847 293.086C221.701 292.088 232.555 291.09 243.409 290.092C244.408 289.655 244.844 289.468 245.842 289.094C235.05 290.029 224.196 291.028 213.342 292.088Z" fill="#6F33EA"/>
<path d="M250.584 288.595C249.649 289.032 249.15 289.219 248.214 289.655C270.733 287.659 293.253 285.663 315.772 283.168C316.708 282.731 317.145 282.482 318.08 282.045C295.561 284.54 273.041 286.536 250.584 288.595Z" fill="#6F33EA"/>
<path d="M205.918 292.774C204.857 293.21 204.296 293.397 203.235 293.834C205.044 293.647 205.98 293.585 207.789 293.397C208.85 292.961 209.411 292.774 210.471 292.337C208.662 292.524 207.727 292.586 205.918 292.774Z" fill="#04D361"/>
<path d="M211.408 278.239C210.847 278.675 210.535 278.862 209.911 279.299C218.644 278.051 227.378 276.929 236.173 275.868C236.797 275.431 237.047 275.244 237.671 274.808C228.875 275.93 220.142 276.991 211.408 278.239Z" fill="#6F33EA"/>
<path d="M247.09 273.686C246.528 274.122 246.217 274.309 245.655 274.746C255.948 273.498 266.179 272.313 276.471 271.128C277.033 270.691 277.282 270.504 277.844 270.067C267.488 271.253 257.258 272.438 247.09 273.686Z" fill="#6F33EA"/>
<path d="M281.4 269.63C280.901 270.067 280.589 270.254 280.09 270.69C299.677 268.445 319.203 266.137 338.728 263.641C339.164 263.205 339.414 262.955 339.851 262.519C320.388 265.014 300.925 267.322 281.4 269.63Z" fill="#6F33EA"/>
<path d="M240.977 274.371C240.415 274.808 240.103 274.995 239.479 275.432C240.852 275.245 241.476 275.182 242.848 274.995C243.472 274.558 243.721 274.371 244.345 273.935C242.973 274.184 242.287 274.246 240.977 274.371Z" fill="#04D361"/>
<path d="M111.661 313.796C110.476 314.108 109.852 314.295 108.604 314.607C111.162 314.171 113.221 313.921 118.523 313.422C119.833 313.048 120.457 312.923 121.704 312.549C116.402 313.11 114.281 313.36 111.661 313.796Z" fill="#04D361"/>
<path d="M106.546 315.73C105.236 316.104 104.612 316.229 103.302 316.603C104.425 316.478 105.049 316.416 106.359 316.291C107.669 315.917 108.355 315.792 109.665 315.418C108.292 315.543 107.669 315.605 106.546 315.73Z" fill="#04D361"/>
<path d="M111.599 315.231C110.289 315.606 109.603 315.73 108.293 316.105C113.034 315.73 115.966 315.481 122.641 315.044C124.013 314.67 124.699 314.483 126.072 314.108C119.334 314.607 116.403 314.857 111.599 315.231Z" fill="#6F33EA"/>
<path d="M129.564 313.921C128.191 314.295 127.505 314.482 126.133 314.856C135.739 314.295 145.346 313.733 154.89 313.234C156.325 312.86 157.011 312.611 158.384 312.236C148.839 312.798 139.17 313.359 129.564 313.921Z" fill="#6F33EA"/>
<path d="M93.1345 318.787C91.8246 319.099 91.2006 319.286 89.8906 319.66C90.5144 319.535 90.8887 319.535 91.762 319.41C93.072 319.036 93.7583 318.911 95.0683 318.537C94.1326 318.599 93.7584 318.662 93.1345 318.787Z" fill="#04D361"/>
<path d="M96.3784 318.35C95.0684 318.724 94.3821 318.849 93.0098 319.223C96.3159 318.911 98.6241 318.724 104.176 318.35C105.611 317.975 106.297 317.788 107.669 317.414C102.117 317.851 99.747 318.038 96.3784 318.35Z" fill="#6F33EA"/>
<path d="M142.665 315.48C141.23 315.855 140.482 316.104 139.047 316.478C146.408 316.104 153.831 315.792 161.192 315.48C162.627 315.044 163.375 314.857 164.81 314.42C157.449 314.794 150.026 315.106 142.665 315.48Z" fill="#04D361"/>
<path d="M110.788 317.227C109.416 317.601 108.667 317.788 107.295 318.162C115.966 317.601 124.637 317.164 133.308 316.79C134.742 316.416 135.491 316.229 136.926 315.792C128.192 316.229 119.459 316.665 110.788 317.227Z" fill="#6F33EA"/>
<path d="M75.792 323.652C74.3572 324.026 73.6711 324.214 72.2363 324.525C72.9225 324.463 73.2968 324.463 74.1078 324.401C75.5425 324.026 76.291 323.839 77.7257 323.527C76.9148 323.527 76.4782 323.59 75.792 323.652Z" fill="#04D361"/>
<path d="M79.3486 323.341C77.9138 323.715 77.1652 323.902 75.7305 324.276C79.6605 324.027 82.2805 323.902 88.4562 323.653C89.9534 323.278 90.702 323.091 92.1991 322.717C86.0234 322.966 83.341 323.091 79.3486 323.341Z" fill="#6F33EA"/>
<path d="M126.945 321.282C125.385 321.719 124.637 321.906 123.077 322.342C124.886 322.28 125.759 322.218 127.631 322.155C129.19 321.719 130.001 321.531 131.499 321.095C129.627 321.157 128.754 321.219 126.945 321.282Z" fill="#04D361"/>
<path d="M95.5053 322.529C94.0082 322.903 93.2597 323.091 91.7002 323.465C100.933 323.091 110.103 322.716 119.335 322.404C120.894 321.968 121.643 321.781 123.203 321.406C113.97 321.781 104.738 322.092 95.5053 322.529Z" fill="#6F33EA"/>
<path d="M135.303 320.969C133.744 321.406 132.995 321.593 131.436 322.03C142.539 321.656 153.643 321.281 164.747 320.907C166.306 320.47 167.117 320.221 168.677 319.784C157.511 320.158 146.407 320.595 135.303 320.969Z" fill="#6F33EA"/>
<path d="M28.757 335.505C27.1974 335.879 26.3865 336.129 24.7646 336.503C25.3261 336.503 25.638 336.503 26.3242 336.503C27.9461 336.129 28.757 335.879 30.3789 335.505C29.6927 335.505 29.3184 335.505 28.757 335.505Z" fill="#AD92FF"/>
<path d="M31.8145 335.443C30.1926 335.817 29.3817 336.067 27.7598 336.441C31.2531 336.379 33.6859 336.379 39.6121 336.316C41.2964 335.88 42.1698 335.693 43.854 335.256C37.8655 335.381 35.3702 335.381 31.8145 335.443Z" fill="#6F33EA"/>
<path d="M77.851 334.818C76.1043 335.255 75.2309 335.504 73.4219 335.941C75.1685 335.941 76.1042 335.941 77.9133 335.879C79.6599 335.442 80.5957 335.193 82.3424 334.756C80.5333 334.818 79.66 334.818 77.851 334.818Z" fill="#04D361"/>
<path d="M47.0349 335.255C45.3506 335.692 44.4773 335.879 42.793 336.316C51.8382 336.191 60.8211 336.128 69.8663 336.004C71.613 335.567 72.4863 335.318 74.233 334.881C65.1254 335.006 56.0801 335.13 47.0349 335.255Z" fill="#6F33EA"/>
<path d="M86.1477 334.756C84.401 335.193 83.5278 335.442 81.7188 335.879C92.573 335.754 103.49 335.692 114.344 335.567C116.153 335.068 117.026 334.881 118.835 334.382C107.981 334.507 97.0643 334.631 86.1477 334.756Z" fill="#6F33EA"/>
<path d="M39.5493 332.448C38.0521 332.822 37.2413 333.009 35.7441 333.383C37.2413 333.321 38.8007 333.259 43.1674 333.196C44.7893 332.822 45.6002 332.573 47.1597 332.198C42.7307 332.323 41.1088 332.385 39.5493 332.448Z" fill="#04D361"/>
<path d="M75.9792 331.637C74.2949 332.073 73.4216 332.26 71.7373 332.697C73.3592 332.697 74.1701 332.635 75.8543 332.635C77.5386 332.198 78.412 332.011 80.0963 331.574C78.412 331.574 77.6011 331.574 75.9792 331.637Z" fill="#04D361"/>
<path d="M49.5303 332.136C47.9084 332.51 47.0975 332.76 45.4756 333.134C53.086 332.947 60.7589 332.822 68.3693 332.697C70.0536 332.261 70.927 332.073 72.6112 331.637C64.9384 331.824 57.2032 331.949 49.5303 332.136Z" fill="#6F33EA"/>
<path d="M83.6519 331.45C81.9676 331.887 81.0944 332.074 79.4102 332.511C90.0773 332.323 100.744 332.199 111.349 332.012C113.096 331.575 113.969 331.325 115.653 330.889C104.986 331.076 94.3191 331.263 83.6519 331.45Z" fill="#6F33EA"/>
<path d="M119.646 330.826C117.899 331.263 117.026 331.512 115.279 331.949C136.676 331.637 158.135 331.325 179.532 331.076C181.403 330.577 182.276 330.327 184.148 329.766C162.626 330.14 141.105 330.452 119.646 330.826Z" fill="#6F33EA"/>
<path d="M73.2338 325.836C71.7367 326.21 70.9882 326.397 69.4287 326.771C74.232 326.584 77.2886 326.46 84.1505 326.21C85.71 325.836 86.521 325.586 88.0805 325.212C81.1562 325.524 78.0996 325.649 73.2338 325.836Z" fill="#04D361"/>
<path d="M125.074 324.09C123.452 324.526 122.641 324.713 121.081 325.15C122.952 325.088 123.888 325.088 125.76 325.025C127.382 324.589 128.192 324.402 129.814 323.965C127.818 323.965 126.883 324.027 125.074 324.09Z" fill="#04D361"/>
<path d="M91.6986 325.15C90.1391 325.524 89.3281 325.773 87.7686 326.148C97.5623 325.836 107.356 325.524 117.212 325.274C118.834 324.838 119.645 324.651 121.205 324.214C111.349 324.463 101.555 324.775 91.6986 325.15Z" fill="#6F33EA"/>
<path d="M133.681 323.84C132.059 324.277 131.248 324.464 129.626 324.9C140.73 324.589 151.833 324.277 162.875 324.027C164.497 323.59 165.308 323.341 166.93 322.904C155.888 323.154 144.785 323.466 133.681 323.84Z" fill="#6F33EA"/>
<path d="M169.176 311.675C167.804 312.112 167.117 312.299 165.683 312.673C177.098 312.112 188.514 311.488 199.992 310.927C201.427 310.49 202.113 310.303 203.485 309.866C192.007 310.49 180.592 311.051 169.176 311.675Z" fill="#6F33EA"/>
<path d="M208.227 309.617C206.854 310.053 206.168 310.303 204.733 310.739C211.408 310.428 214.714 310.24 221.077 309.929C222.512 309.492 223.198 309.242 224.571 308.806C218.208 309.118 214.902 309.242 208.227 309.617Z" fill="#04D361"/>
<path d="M229.062 308.494C227.689 308.93 226.941 309.18 225.568 309.617C227.065 309.554 227.814 309.492 229.249 309.429C230.684 308.993 231.37 308.743 232.742 308.307C231.307 308.369 230.559 308.431 229.062 308.494Z" fill="#04D361"/>
<path d="M161.441 312.049C160.068 312.424 159.382 312.673 157.947 313.047C159.756 312.923 160.692 312.923 162.563 312.798C163.998 312.424 164.684 312.174 166.057 311.8C164.185 311.925 163.25 311.987 161.441 312.049Z" fill="#04D361"/>
<path d="M84.0894 321.157C82.7794 321.469 82.0931 321.656 80.7207 322.03C82.5297 321.781 84.2141 321.593 88.7055 321.282C90.1402 320.907 90.8264 320.72 92.2612 320.408C87.7074 320.72 86.0232 320.845 84.0894 321.157Z" fill="#04D361"/>
<path d="M94.6935 320.221C93.2588 320.596 92.5725 320.783 91.1377 321.157C98.8105 320.658 106.483 320.346 114.156 319.972C115.653 319.597 116.402 319.41 117.837 318.974C110.101 319.348 102.429 319.722 94.6935 320.221Z" fill="#6F33EA"/>
<path d="M127.381 318.537C125.883 318.912 125.135 319.161 123.638 319.536C134.554 319.099 145.409 318.662 156.325 318.226C157.822 317.789 158.571 317.602 160.068 317.165C149.151 317.539 138.297 318.038 127.381 318.537Z" fill="#6F33EA"/>
<path d="M164.872 316.915C163.375 317.352 162.626 317.539 161.129 317.976C183.648 317.102 206.105 316.291 228.625 315.231C230.184 314.732 230.995 314.482 232.493 313.983C209.973 315.106 187.391 315.98 164.872 316.915Z" fill="#6F33EA"/>
<path d="M120.457 318.849C118.96 319.224 118.211 319.411 116.776 319.847C118.398 319.785 119.209 319.723 120.831 319.66C122.328 319.286 123.077 319.036 124.574 318.662C122.89 318.724 122.079 318.724 120.457 318.849Z" fill="#04D361"/>
<path d="M50.8407 329.516C49.3436 329.89 48.6573 330.077 47.1602 330.452C48.4078 330.327 49.8426 330.265 53.9598 330.14C55.5193 329.766 56.2678 329.578 57.8273 329.204C53.7102 329.329 52.2131 329.391 50.8407 329.516Z" fill="#04D361"/>
<path d="M60.1976 329.081C58.6381 329.455 57.8271 329.642 56.2676 330.016C63.6909 329.767 71.1142 329.58 78.5375 329.393C80.1594 328.956 80.9704 328.769 82.5923 328.395C75.1066 328.644 67.6209 328.831 60.1976 329.081Z" fill="#6F33EA"/>
<path d="M92.0127 328.207C90.3908 328.643 89.5798 328.83 87.8955 329.267C98.6874 329.018 109.479 328.768 120.334 328.581C122.018 328.144 122.829 327.895 124.513 327.458C113.659 327.645 102.867 327.895 92.0127 328.207Z" fill="#6F33EA"/>
<path d="M129.253 327.333C127.568 327.77 126.758 328.019 125.073 328.456C146.844 328.019 168.615 327.583 190.323 327.146C192.07 326.647 192.943 326.397 194.69 325.898C172.919 326.335 151.086 326.834 129.253 327.333Z" fill="#6F33EA"/>
<path d="M85.2127 328.331C83.5908 328.767 82.78 328.955 81.0957 329.391C82.6552 329.329 83.4662 329.329 85.1505 329.267C86.7724 328.83 87.6456 328.643 89.2675 328.206C87.5832 328.268 86.7723 328.331 85.2127 328.331Z" fill="#04D361"/>
<path d="M124.013 312.362C122.703 312.736 122.08 312.861 120.77 313.235C128.941 312.549 137.113 311.987 145.285 311.426C146.658 311.052 147.281 310.865 148.591 310.49C140.42 311.114 132.185 311.675 124.013 312.362Z" fill="#6F33EA"/>
<path d="M158.323 309.928C157.013 310.302 156.326 310.489 154.954 310.926C165.933 310.24 176.85 309.616 187.829 308.992C189.201 308.555 189.825 308.368 191.197 307.932C180.218 308.555 169.302 309.242 158.323 309.928Z" fill="#6F33EA"/>
<path d="M195.189 307.683C193.879 308.12 193.193 308.307 191.82 308.744C212.468 307.558 233.116 306.436 253.702 305.126C255.074 304.627 255.761 304.439 257.071 303.94C236.485 305.313 215.837 306.498 195.189 307.683Z" fill="#6F33EA"/>
<path d="M152.021 310.302C150.711 310.677 150.025 310.864 148.652 311.238C150.025 311.176 150.711 311.113 152.146 311.051C153.518 310.677 154.142 310.49 155.514 310.115C154.079 310.178 153.393 310.24 152.021 310.302Z" fill="#04D361"/>
<path d="M392.251 205.878C390.068 204.942 387.697 204.568 385.327 204.755L194.254 217.668C191.572 217.855 190.2 221.099 192.009 223.095C193.443 224.717 195.003 226.775 196.438 229.27C196.625 229.146 196.749 229.083 196.937 228.959C197.935 227.274 199.619 226.214 201.553 226.027L394.871 207.063C393.935 206.626 393.062 206.252 392.251 205.878Z" fill="#D7D7E1"/>
<path d="M245.593 17.0506C236.236 13.9316 209.412 -9.77311 208.789 4.57447C208.165 18.9221 231.246 40.7554 231.246 40.7554C209.412 28.2792 203.486 7.25685 203.486 7.25685C198.371 6.94495 194.441 8.69161 193.817 14.5554C191.946 33.2697 219.393 53.2315 219.393 53.2315C195.065 42.003 190.074 20.7935 190.074 20.7935C186.331 22.0411 180.093 30.1506 190.074 44.4982C200.055 58.8458 220.017 66.3315 220.017 66.3315C229.374 48.2411 247.465 38.2601 254.95 43.8744C262.436 49.4887 256.198 61.341 256.198 61.341C265.555 60.7172 266.803 70.0743 266.803 70.0743C258.693 63.2124 247.465 65.7077 247.465 65.7077C255.574 61.341 257.446 42.003 245.593 46.3696C233.741 50.7363 215.027 71.9458 227.503 81.9267C239.979 91.9076 273.976 80.3672 273.976 80.3672C287.763 80.3672 299.116 81.8019 308.036 84.2348C310.781 67.1424 321.261 47.4925 329.87 33.5192C294.999 19.6083 252.33 19.2963 245.593 17.0506Z" fill="url(#paint1_linear)"/>
<path d="M227.503 206.065C227.503 206.065 232.494 214.174 249.337 213.55C249.337 213.55 239.979 243.493 251.208 248.484C262.125 253.349 266.554 218.603 266.803 216.732C266.803 216.669 266.803 216.669 266.803 216.669V216.732C266.616 218.416 263.31 246.675 271.17 248.484C279.279 250.355 282.398 216.669 282.398 216.669C282.398 216.669 281.775 249.731 293.627 242.869C305.479 236.007 297.37 198.579 274.289 174.874C257.321 157.408 234.241 146.741 204.797 150.296C196.563 178.492 200.617 198.392 205.296 209.932C213.093 207.312 220.517 205.753 227.503 206.065Z" fill="url(#paint2_linear)"/>
<path d="M204.414 223.232C205.085 222.069 204.3 220.357 202.659 219.41C201.018 218.463 199.143 218.638 198.471 219.801C197.799 220.965 198.585 222.676 200.226 223.624C201.867 224.571 203.742 224.396 204.414 223.232Z" fill="#AAAABC"/>
<path d="M213.147 222.608C213.819 221.445 213.033 219.733 211.392 218.786C209.751 217.838 207.876 218.014 207.205 219.177C206.533 220.341 207.319 222.052 208.959 223C210.6 223.947 212.475 223.772 213.147 222.608Z" fill="#AAAABC"/>
<path d="M221.88 221.983C222.552 220.82 221.767 219.108 220.126 218.161C218.485 217.213 216.61 217.389 215.938 218.552C215.266 219.716 216.052 221.427 217.693 222.375C219.334 223.322 221.209 223.147 221.88 221.983Z" fill="#04D361"/>
<path d="M156.45 104.758L164.373 116.735C165.371 118.232 164.31 120.291 162.439 120.291C161.316 120.291 160.63 121.538 161.253 122.474L170.673 137.071C170.922 137.508 171.359 137.695 171.858 137.695H173.917C174.853 137.695 175.726 138.256 176.038 139.13C177.161 141.937 179.593 148.424 181.34 154.288L179.718 154.85C179.718 154.85 177.036 145.742 174.665 140.003C174.416 139.379 173.792 139.067 173.168 139.13L171.359 139.379C170.486 139.504 169.612 139.13 169.113 138.319L158.821 122.1C157.885 120.665 158.821 118.793 160.505 118.606L161.004 118.544C162.002 118.419 162.563 117.421 162.127 116.485L156.45 104.758Z" fill="#D7D7E1"/>
<path d="M165.06 124.16L171.423 133.891C171.86 134.515 172.546 134.764 173.107 134.515H173.169C174.105 134.14 174.417 132.768 173.793 131.77L167.368 122.039C167.056 121.602 166.619 121.352 166.183 121.29C164.935 121.29 164.249 122.974 165.06 124.16Z" fill="#8157E4"/>
<path d="M565.039 176.523H548.234V214H527.141V111.625H565.18C577.273 111.625 586.602 114.32 593.164 119.711C599.727 125.102 603.008 132.719 603.008 142.562C603.008 149.547 601.484 155.383 598.438 160.07C595.438 164.711 590.867 168.414 584.727 171.18L606.875 213.016V214H584.234L565.039 176.523ZM548.234 159.438H565.25C570.547 159.438 574.648 158.102 577.555 155.43C580.461 152.711 581.914 148.984 581.914 144.25C581.914 139.422 580.531 135.625 577.766 132.859C575.047 130.094 570.852 128.711 565.18 128.711H548.234V159.438ZM614.609 175.258C614.609 167.711 616.062 160.984 618.969 155.078C621.875 149.172 626.047 144.602 631.484 141.367C636.969 138.133 643.32 136.516 650.539 136.516C660.805 136.516 669.172 139.656 675.641 145.938C682.156 152.219 685.789 160.75 686.539 171.531L686.68 176.734C686.68 188.406 683.422 197.781 676.906 204.859C670.391 211.891 661.648 215.406 650.68 215.406C639.711 215.406 630.945 211.891 624.383 204.859C617.867 197.828 614.609 188.266 614.609 176.172V175.258ZM634.93 176.734C634.93 183.953 636.289 189.484 639.008 193.328C641.727 197.125 645.617 199.023 650.68 199.023C655.602 199.023 659.445 197.148 662.211 193.398C664.977 189.602 666.359 183.555 666.359 175.258C666.359 168.18 664.977 162.695 662.211 158.805C659.445 154.914 655.555 152.969 650.539 152.969C645.57 152.969 641.727 154.914 639.008 158.805C636.289 162.648 634.93 168.625 634.93 176.734ZM730.836 199.023C734.586 199.023 737.633 197.992 739.977 195.93C742.32 193.867 743.539 191.125 743.633 187.703H762.688C762.641 192.859 761.234 197.594 758.469 201.906C755.703 206.172 751.906 209.5 747.078 211.891C742.297 214.234 737 215.406 731.188 215.406C720.312 215.406 711.734 211.961 705.453 205.07C699.172 198.133 696.031 188.57 696.031 176.383V175.047C696.031 163.328 699.148 153.977 705.383 146.992C711.617 140.008 720.172 136.516 731.047 136.516C740.562 136.516 748.18 139.234 753.898 144.672C759.664 150.062 762.594 157.258 762.688 166.258H743.633C743.539 162.32 742.32 159.133 739.977 156.695C737.633 154.211 734.539 152.969 730.695 152.969C725.961 152.969 722.375 154.703 719.938 158.172C717.547 161.594 716.352 167.172 716.352 174.906V177.016C716.352 184.844 717.547 190.469 719.938 193.891C722.328 197.312 725.961 199.023 730.836 199.023ZM801.922 183.484L794.609 190.797V214H774.289V106H794.609V165.836L798.547 160.773L818.023 137.922H842.422L814.93 169.633L844.812 214H821.469L801.922 183.484ZM884.82 215.406C873.664 215.406 864.57 211.984 857.539 205.141C850.555 198.297 847.062 189.18 847.062 177.789V175.82C847.062 168.18 848.539 161.359 851.492 155.359C854.445 149.312 858.617 144.672 864.008 141.438C869.445 138.156 875.633 136.516 882.57 136.516C892.977 136.516 901.156 139.797 907.109 146.359C913.109 152.922 916.109 162.227 916.109 174.273V182.57H867.664C868.32 187.539 870.289 191.523 873.57 194.523C876.898 197.523 881.094 199.023 886.156 199.023C893.984 199.023 900.102 196.188 904.508 190.516L914.492 201.695C911.445 206.008 907.32 209.383 902.117 211.82C896.914 214.211 891.148 215.406 884.82 215.406ZM882.5 152.969C878.469 152.969 875.188 154.328 872.656 157.047C870.172 159.766 868.578 163.656 867.875 168.719H896.141V167.102C896.047 162.602 894.828 159.133 892.484 156.695C890.141 154.211 886.812 152.969 882.5 152.969ZM952.039 119.219V137.922H965.047V152.828H952.039V190.797C952.039 193.609 952.578 195.625 953.656 196.844C954.734 198.062 956.797 198.672 959.844 198.672C962.094 198.672 964.086 198.508 965.82 198.18V213.578C961.836 214.797 957.734 215.406 953.516 215.406C939.266 215.406 932 208.211 931.719 193.82V152.828H920.609V137.922H931.719V119.219H952.039ZM1060.95 214H1039.86L998.797 146.641V214H977.703V111.625H998.797L1039.93 179.125V111.625H1060.95V214ZM1113.05 215.406C1101.9 215.406 1092.8 211.984 1085.77 205.141C1078.79 198.297 1075.3 189.18 1075.3 177.789V175.82C1075.3 168.18 1076.77 161.359 1079.73 155.359C1082.68 149.312 1086.85 144.672 1092.24 141.438C1097.68 138.156 1103.87 136.516 1110.8 136.516C1121.21 136.516 1129.39 139.797 1135.34 146.359C1141.34 152.922 1144.34 162.227 1144.34 174.273V182.57H1095.9C1096.55 187.539 1098.52 191.523 1101.8 194.523C1105.13 197.523 1109.33 199.023 1114.39 199.023C1122.22 199.023 1128.34 196.188 1132.74 190.516L1142.73 201.695C1139.68 206.008 1135.55 209.383 1130.35 211.82C1125.15 214.211 1119.38 215.406 1113.05 215.406ZM1110.73 152.969C1106.7 152.969 1103.42 154.328 1100.89 157.047C1098.41 159.766 1096.81 163.656 1096.11 168.719H1124.38V167.102C1124.28 162.602 1123.06 159.133 1120.72 156.695C1118.38 154.211 1115.05 152.969 1110.73 152.969ZM1222.11 186.367L1232.09 137.922H1251.71L1232.3 214H1215.29L1200.88 166.117L1186.46 214H1169.52L1150.11 137.922H1169.73L1179.64 186.297L1193.56 137.922H1208.26L1222.11 186.367ZM1303.04 192.977C1303.04 190.492 1301.8 188.547 1299.31 187.141C1296.88 185.688 1292.94 184.398 1287.5 183.273C1269.41 179.477 1260.36 171.789 1260.36 160.211C1260.36 153.461 1263.15 147.836 1268.73 143.336C1274.35 138.789 1281.69 136.516 1290.73 136.516C1300.39 136.516 1308.1 138.789 1313.87 143.336C1319.68 147.883 1322.59 153.789 1322.59 161.055H1302.27C1302.27 158.148 1301.33 155.758 1299.45 153.883C1297.58 151.961 1294.65 151 1290.66 151C1287.24 151 1284.59 151.773 1282.72 153.32C1280.84 154.867 1279.91 156.836 1279.91 159.227C1279.91 161.477 1280.96 163.305 1283.07 164.711C1285.23 166.07 1288.84 167.266 1293.9 168.297C1298.96 169.281 1303.23 170.406 1306.7 171.672C1317.43 175.609 1322.8 182.43 1322.8 192.133C1322.8 199.07 1319.82 204.695 1313.87 209.008C1307.91 213.273 1300.23 215.406 1290.8 215.406C1284.43 215.406 1278.76 214.281 1273.79 212.031C1268.87 209.734 1265 206.617 1262.19 202.68C1259.38 198.695 1257.97 194.406 1257.97 189.812H1277.23C1277.42 193.422 1278.76 196.188 1281.24 198.109C1283.73 200.031 1287.05 200.992 1291.23 200.992C1295.12 200.992 1298.05 200.266 1300.02 198.812C1302.03 197.312 1303.04 195.367 1303.04 192.977Z" fill="#E1E1E6"/>
<path d="M1337 204.016C1337 200.781 1338.08 198.156 1340.23 196.141C1342.44 194.125 1345.18 193.117 1348.46 193.117C1351.79 193.117 1354.53 194.125 1356.69 196.141C1358.89 198.156 1359.99 200.781 1359.99 204.016C1359.99 207.203 1358.91 209.805 1356.76 211.82C1354.6 213.789 1351.84 214.773 1348.46 214.773C1345.13 214.773 1342.39 213.789 1340.23 211.82C1338.08 209.805 1337 207.203 1337 204.016Z" fill="#04D361"/>
<defs>
<radialGradient id="paint0_radial" cx="0" cy="0" r="1" gradientUnits="userSpaceOnUse" gradientTransform="translate(398.142 173.39) scale(517.345)">
<stop offset="0.2882" stop-color="#27272E"/>
<stop offset="1" stop-color="#121214"/>
</radialGradient>
<linearGradient id="paint1_linear" x1="328.218" y1="75.4421" x2="141.72" y2="10.0605" gradientUnits="userSpaceOnUse">
<stop offset="0.3276" stop-color="#8157E4"/>
<stop offset="0.395" stop-color="#7D55DD"/>
<stop offset="0.495" stop-color="#724EC9"/>
<stop offset="0.615" stop-color="#6143A8"/>
<stop offset="0.7508" stop-color="#49347A"/>
<stop offset="0.8976" stop-color="#2A2141"/>
<stop offset="1" stop-color="#121214"/>
</linearGradient>
<linearGradient id="paint2_linear" x1="325.646" y1="165.352" x2="158.758" y2="233.608" gradientUnits="userSpaceOnUse">
<stop offset="0.3276" stop-color="#8157E4"/>
<stop offset="0.395" stop-color="#7D55DD"/>
<stop offset="0.495" stop-color="#724EC9"/>
<stop offset="0.615" stop-color="#6143A8"/>
<stop offset="0.7508" stop-color="#49347A"/>
<stop offset="0.8976" stop-color="#2A2141"/>
<stop offset="1" stop-color="#121214"/>
</linearGradient>
</defs>
</svg>
