<svg width="44" height="50" viewBox="0 0 44 50" fill="none" xmlns="http://www.w3.org/2000/svg">
<path d="M42.5337 0.987847L35.6325 0.0103999C35.4284 -0.0286979 35.2242 0.049493 35.1425 0.127689L32.2024 3.80289C31.9982 4.03747 31.9574 4.35026 32.039 4.62394C32.1207 4.89763 31.8757 5.13222 31.5899 5.09312L29.1806 4.58484C28.8131 4.50665 28.4047 4.62395 28.1597 4.93673L18.6043 16.6661C18.441 16.9007 18.1143 16.9789 17.8284 16.8616L14.1941 15.2977C13.8674 15.1413 13.4999 15.1804 13.2141 15.3759L11.3765 16.5879C11.0907 16.7834 10.6823 16.8225 10.3556 16.6661L9.45725 16.236C8.88556 15.9623 8.19136 16.2751 8.02802 16.8616L7.37466 19.6375C7.21132 20.3022 7.49716 20.9669 8.10969 21.3187L9.49808 22.1398L13.9491 24.7593L16.1134 26.0496C16.7259 26.4015 17.5018 26.3233 18.0326 25.8932L21.6669 22.8436C21.9528 22.609 22.402 22.5308 22.7287 22.7263L23.8312 23.2736C24.1987 23.4691 24.6479 23.3909 24.9337 23.1172L26.7713 21.4751C27.0572 21.2014 27.5064 21.1623 27.833 21.3187L30.569 22.5308C30.9773 22.7263 31.4674 22.609 31.7532 22.2571L33.0191 20.6932L42.6153 8.92471C43.0645 8.37734 42.7787 7.55629 42.0436 7.3999L39.9202 6.93072C39.471 6.85252 39.2669 6.30515 39.5935 5.99237L42.9012 2.04348C43.2279 1.57431 43.0237 1.06604 42.5337 0.987847Z" fill="#8257E5"/>
<path d="M10.449 24.6112C10.2295 24.4956 10.0099 24.6883 10.0977 24.8811L11.1956 27.4257C11.2834 27.6184 11.2834 27.8112 11.2395 28.004L10.2734 31.3196C10.2295 31.5509 10.3173 31.7823 10.4929 31.8979L13.2596 33.7871C13.5231 33.9413 13.8744 33.9413 14.094 33.7485L16.9924 31.5124C17.168 31.3967 17.3876 31.3196 17.5633 31.2811L20.8569 30.9726C21.0765 30.9341 21.1643 30.6642 20.9447 30.5485L10.449 24.6112Z" fill="#8257E5"/>
<path d="M9.79174 33.1659C9.62545 33.0524 9.37603 33.0146 9.16818 33.0902L6.96494 34.0733C6.84023 34.1111 6.75709 34.2245 6.67395 34.3379L1.97648 44.8867C1.97648 44.9245 1.97648 44.9245 1.97648 44.9623C2.01805 45.0001 2.05962 45.0379 2.14276 45.0379L3.2236 44.6598C3.26517 44.6598 3.30673 44.6598 3.3483 44.6598C3.38987 44.6976 3.43145 44.7732 3.38987 44.8111L0.0226591 49.8397C-0.060482 49.9531 0.105804 50.0665 0.188945 49.9531L12.3691 38.8372C12.4938 38.7238 12.5354 38.6104 12.577 38.4591L12.8264 35.5856C12.8264 35.3966 12.7432 35.2453 12.6185 35.1319L9.79174 33.1659Z" fill="#8257E5"/>
</svg>
