<svg width="171" height="33" viewBox="0 0 171 33" fill="none" xmlns="http://www.w3.org/2000/svg">
<path d="M35.6295 9.62415C34.1907 9.62415 33.0044 10.7853 33.0044 12.2494V17.8027V23.356H35.6295V17.8027V12.2494H38.7595H41.8894V9.62415H38.7595H35.6295Z" fill="white"/>
<path d="M57.5393 16.4648V12.2241C57.5393 10.7853 56.3782 9.59888 54.9141 9.59888H50.6736H46.433C44.9942 9.59888 43.8079 10.76 43.8079 12.2241V16.4648V20.7056C43.8079 22.1444 44.969 23.3308 46.433 23.3308H50.6736H54.9141C56.3529 23.3308 57.5393 22.1696 57.5393 20.7056V16.4648ZM54.9141 16.4648V20.7056H50.6736H46.433V16.4648V12.2241H50.6736H54.9141V16.4648Z" fill="white"/>
<path d="M62.7894 9.62415C61.3507 9.62415 60.1643 10.7853 60.1643 12.2494V16.4901V20.7308C60.1643 22.1697 61.3254 23.356 62.7894 23.356L72.0278 23.2298V20.7308H62.7894V16.4901V12.2494H72.0278V9.75036L62.7894 9.62415Z" fill="white"/>
<path d="M87.0719 9.62415H83.5129L78.3131 15.1522H77.2782V9.62415H74.6531V16.4649V23.3308H77.2782V17.7775H78.5908H78.7927L84.1944 23.3308H87.8039L80.8625 16.1619L87.0719 9.62415Z" fill="white"/>
<path d="M90.9843 20.7056V17.7774L102.091 17.6512V15.1522V12.2241C102.091 10.7853 100.929 9.59888 99.4654 9.59888H95.2248H90.9843C89.5455 9.59888 88.3591 10.76 88.3591 12.2241V16.4648V20.7056C88.3591 22.1444 89.5202 23.3308 90.9843 23.3308L102.091 23.2046V20.7056H90.9843ZM90.9843 12.2241H95.2248H99.4654V15.1522H96.5374H90.9843V12.2241Z" fill="white"/>
<path d="M108.679 5.6106H107.669L106.054 7.60476V9.59891H104.06V12.2241L106.054 12.1989V20.7056C106.054 22.1444 107.215 23.3308 108.679 23.3308L112.919 23.2046V20.7056H108.679V12.1736L113.298 12.0979V9.59891H108.679V5.6106Z" fill="white"/>
<path d="M127.13 17.7774C127.13 16.3386 125.969 15.1522 124.505 15.1522H121.198H117.892V12.2241H127.13V9.72509L117.892 9.59888C116.453 9.59888 115.267 10.76 115.267 12.2241V15.1522C115.267 16.591 116.428 17.7774 117.892 17.7774H121.198H124.505V20.7056H115.267V23.2046L124.505 23.3308C125.944 23.3308 127.13 22.1696 127.13 20.7056V17.7774Z" fill="white"/>
<path d="M140.836 9.62415H136.596H132.355C130.916 9.62415 129.73 10.7853 129.73 12.2494V16.4901V20.7308C129.73 22.1697 130.891 23.356 132.355 23.356L143.461 23.2298V20.7308H132.355V17.8027L143.461 17.6765V15.1775V12.2494C143.461 10.7853 142.3 9.62415 140.836 9.62415ZM140.836 15.1522H132.355V12.2241H136.596H140.836V15.1522Z" fill="white"/>
<path d="M157.193 9.62415L146.086 9.75036V12.2494H157.193V15.1775L146.086 15.3037V17.8027V20.7308C146.086 22.1697 147.248 23.356 148.712 23.356H152.952H157.193C158.631 23.356 159.818 22.1949 159.818 20.7308V16.4901V12.2494C159.793 10.7853 158.631 9.62415 157.193 9.62415ZM157.193 20.7056H152.952H148.712V17.7775H157.193V20.7056Z" fill="white"/>
<path d="M166.381 12.1736L171 12.0979V9.59888H166.381V5.58533H165.371L163.756 7.57948V9.57364H161.762V12.1989L163.756 12.1736V20.6803C163.756 22.1191 164.917 23.3056 166.381 23.3056L170.621 23.1793V20.6803H166.381V12.1736Z" fill="white"/>
<path d="M26.063 0.637776L21.7972 0.00671443C21.671 -0.0185281 21.5447 0.0319538 21.4943 0.0824388L19.6769 2.45523C19.5507 2.60669 19.5254 2.80863 19.5759 2.98532C19.6264 3.16202 19.4749 3.31348 19.2983 3.28824L17.809 2.96008C17.5818 2.9096 17.3294 2.98533 17.178 3.18727L11.2714 10.76C11.1705 10.9115 10.9685 10.962 10.7918 10.8862L8.54535 9.87653C8.34342 9.77556 8.11624 9.80079 7.93955 9.92701L6.80368 10.7095C6.62699 10.8357 6.37458 10.861 6.17264 10.76L5.61733 10.4823C5.26395 10.3056 4.83484 10.5076 4.73388 10.8862L4.33001 12.6784C4.22904 13.1076 4.40574 13.5367 4.78436 13.7639L5.64257 14.294L8.3939 15.9852L9.7317 16.8182C10.1103 17.0454 10.5899 16.9949 10.9181 16.7172L13.1646 14.7483C13.3412 14.5969 13.6189 14.5464 13.8208 14.6726L14.5024 15.026C14.7295 15.1522 15.0072 15.1017 15.1839 14.925L16.3197 13.8648C16.4964 13.6881 16.7741 13.6629 16.976 13.7639L18.6672 14.5464C18.9196 14.6726 19.2225 14.5969 19.3992 14.3697L20.1817 13.36L26.1135 5.762C26.3911 5.4086 26.2144 4.87851 25.7601 4.77754L24.4475 4.47463C24.1699 4.42414 24.0437 4.07075 24.2456 3.86881L26.2902 1.31932C26.4921 1.01641 26.3659 0.688261 26.063 0.637776Z" fill="#8257E6"/>
<path d="M6.50093 15.9347C6.37472 15.859 6.24851 15.9852 6.299 16.1114L6.93003 17.7774C6.98052 17.9036 6.98051 18.0299 6.95527 18.1561L6.39996 20.3269C6.37472 20.4784 6.4252 20.6298 6.52617 20.7055L8.11639 21.9424C8.26784 22.0434 8.46977 22.0434 8.59597 21.9172L10.2619 20.4531C10.3629 20.3774 10.4891 20.3269 10.5901 20.3017L12.4832 20.0997C12.6094 20.0745 12.6599 19.8978 12.5337 19.8221L6.50093 15.9347Z" fill="#8257E6"/>
<path d="M5.94552 21.5385C5.84456 21.4628 5.69311 21.4376 5.5669 21.4881L4.2291 22.1444C4.15338 22.1696 4.10289 22.2453 4.05241 22.3211L1.20011 29.3637C1.20011 29.389 1.20011 29.3889 1.20011 29.4142C1.22536 29.4394 1.2506 29.4647 1.30108 29.4647L1.95736 29.2123C1.9826 29.2123 2.00784 29.2123 2.03308 29.2123C2.05832 29.2375 2.08357 29.288 2.05833 29.3132L0.0137586 32.6705C-0.0367245 32.7462 0.064244 32.8219 0.114727 32.7462L7.5105 25.3249C7.58623 25.2492 7.61147 25.1735 7.63671 25.0725L7.78816 23.1541C7.78816 23.0278 7.73767 22.9269 7.66195 22.8511L5.94552 21.5385Z" fill="#8257E6"/>
</svg>
