<svg width="34" height="34" viewBox="0 0 34 34" fill="none" xmlns="http://www.w3.org/2000/svg">
<path d="M7.08333 31.1667H26.9167C28.4792 31.1667 29.75 29.8959 29.75 28.3333V12.75C29.75 12.3743 29.6007 12.0139 29.3351 11.7483C29.0694 11.4826 28.7091 11.3333 28.3333 11.3333H24.0833V9.91667C24.0833 6.01092 20.9058 2.83333 17 2.83333C13.0942 2.83333 9.91667 6.01092 9.91667 9.91667V11.3333H5.66667C5.29094 11.3333 4.93061 11.4826 4.66493 11.7483C4.39926 12.0139 4.25 12.3743 4.25 12.75V28.3333C4.25 29.8959 5.52075 31.1667 7.08333 31.1667ZM12.75 9.91667C12.75 7.5735 14.6568 5.66667 17 5.66667C19.3432 5.66667 21.25 7.5735 21.25 9.91667V11.3333H12.75V9.91667ZM7.08333 14.1667H9.91667V17H12.75V14.1667H21.25V17H24.0833V14.1667H26.9167L26.9195 28.3333H7.08333V14.1667Z" fill="black"/>
</svg>
