<svg width="52" height="36" viewBox="0 0 52 36" fill="none" xmlns="http://www.w3.org/2000/svg">
<path d="M17.6411 30.7778C17.6411 30.2869 17.3113 29.9596 16.8167 29.9596H2.47303C1.97842 29.9596 1.64868 30.2869 1.64868 30.7778C1.64868 31.2687 1.97842 31.596 2.47303 31.596H16.8167C17.3113 31.596 17.6411 31.1869 17.6411 30.7778Z" fill="#FF0000"/>
<path d="M5.77041 34.0505H4.12171C3.6271 34.0505 3.29736 34.3778 3.29736 34.8687C3.29736 35.3596 3.6271 35.6869 4.12171 35.6869H5.77041C6.26502 35.6869 6.59476 35.3596 6.59476 34.8687C6.59476 34.3778 6.26502 34.0505 5.77041 34.0505Z" fill="#FF0000"/>
<path d="M9.64489 26.6869C9.64489 26.196 9.31515 25.8687 8.82054 25.8687H0.82435C0.32974 25.8687 0 26.196 0 26.6869C0 27.1778 0.32974 27.5051 0.82435 27.5051H8.82054C9.31515 27.5051 9.64489 27.096 9.64489 26.6869Z" fill="#FF0000"/>
<path d="M50.615 28.0778C50.3677 27.5869 49.8731 27.1778 49.3785 26.9324L43.1135 24.5596L40.558 23.6596C39.8161 23.3324 39.1566 22.8414 38.7444 22.1869L36.6011 18.6687C37.0133 18.5869 37.2606 18.2596 37.2606 17.8505C37.2606 17.3596 36.9308 17.0324 36.4362 17.0324H35.6119L34.6227 15.396C35.0348 15.3142 35.2821 14.9869 35.2821 14.5778C35.2821 14.0869 34.9524 13.7596 34.4578 13.7596H33.6334L32.8091 12.4505C33.1388 12.3687 33.3861 12.0414 33.3861 11.7142C33.3861 11.2233 33.0564 10.896 32.5618 10.896H31.8199L30.7482 9.17781C30.7482 9.17781 30.7482 9.09599 30.6658 9.09599C29.6765 7.95054 28.3576 7.37781 26.9562 7.54145C25.7197 7.70508 24.7305 8.44145 24.3183 9.34145C24.2358 9.5869 24.2358 9.83236 24.4007 10.0778L31.2428 21.696C31.3253 21.8596 31.4901 22.0233 31.655 22.0233L40.0634 25.2142H40.1458L42.6188 26.1142L48.8015 28.4869C48.9663 28.5687 49.1312 28.6505 49.2136 28.896C49.5434 29.5505 49.5434 30.2051 49.1312 30.8596H35.6943C34.87 30.8596 34.0456 30.6142 33.3861 30.1233L10.3868 13.1869C10.3868 13.1869 10.7165 13.0233 11.1287 12.4505C11.5409 11.8778 11.7057 11.1414 11.7057 10.4051L10.9638 3.53236L11.953 1.97781C12.2003 1.65054 12.6949 1.56872 13.0247 1.81417C13.272 2.05963 14.2612 2.87781 16.6518 6.72327C17.8884 8.52327 19.8668 9.83236 22.0925 10.1596C22.5047 10.2414 22.9993 9.91418 23.0818 9.50508C23.1642 9.09599 22.8344 8.60508 22.4223 8.52327C20.6911 8.19599 19.0424 7.21417 18.0532 5.74145C15.168 1.32327 14.3436 0.66872 14.0139 0.423266C12.9423 -0.313098 11.4584 -0.0676435 10.6341 0.995993L5.60554 8.93236C5.2758 9.42327 5.19337 9.99599 5.2758 10.5687C4.78119 10.7324 4.28658 10.9778 4.03928 11.4687L2.72032 13.5142C1.9784 14.5778 2.30814 16.0505 3.3798 16.7869C4.12171 17.3596 5.68798 18.3414 7.99616 19.8142C8.16103 19.896 8.32589 19.9778 8.40833 19.9778C8.65563 19.9778 8.90294 19.8142 9.06781 19.5687C9.31511 19.1596 9.23268 18.6687 8.82051 18.4233C6.59476 16.9505 5.0285 15.9687 4.28658 15.396C3.95684 15.1505 3.87441 14.7414 4.12171 14.3324L5.35824 12.4505C5.60554 12.1233 6.10015 12.0414 6.42989 12.2869L32.3145 31.4324C33.3037 32.1687 34.4578 32.496 35.6119 32.496H46.9879C45.2568 33.3142 42.8661 34.0505 40.8053 34.0505H37.92H35.5294C34.128 34.0505 32.7266 33.6414 31.5726 32.9051C26.7913 29.8778 17.8884 24.2324 11.376 20.0596C10.9638 19.8142 10.4692 19.896 10.2219 20.3051C9.97459 20.7142 10.057 21.2051 10.4692 21.4505C16.8167 25.5414 25.4724 31.0233 30.336 34.1324H9.06781C8.5732 34.1324 8.24346 34.4596 8.24346 34.9505C8.24346 35.4414 8.5732 35.7687 9.06781 35.7687H35.5294H37.92H40.7228C44.1027 35.7687 48.9663 33.9687 50.2029 32.2505C51.2745 30.7778 51.3569 29.3869 50.615 28.0778ZM32.3969 20.7142L25.967 9.83236C26.2143 9.5869 26.6265 9.34145 27.1211 9.25963C27.6157 9.17781 28.5225 9.25963 29.3468 10.1596L29.8414 10.9778H29.0995C28.6049 10.9778 28.2752 11.3051 28.2752 11.796C28.2752 12.2869 28.6049 12.6142 29.0995 12.6142H30.8306L31.655 13.9233H30.9955C30.5009 13.9233 30.1712 14.2505 30.1712 14.7414C30.1712 15.2324 30.5009 15.5596 30.9955 15.5596H32.6442L33.6334 17.1142H32.9739C32.4793 17.1142 32.1496 17.4414 32.1496 17.9324C32.1496 18.4233 32.4793 18.7505 32.9739 18.7505H34.6227L36.9308 22.3505L32.3969 20.7142ZM7.00694 9.83236L9.56242 5.82327L10.057 10.5687C10.057 10.896 9.97459 11.2233 9.80972 11.4687C9.64486 11.7142 9.31511 12.3687 8.5732 11.796C8.5732 11.796 8.16103 11.5505 7.41911 10.9778C6.9245 10.5687 6.84207 10.1596 7.00694 9.83236Z" fill="#FF0000"/>
</svg>
